<?xml version="1.0" standalone="no"?>
<!DOCTYPE svg PUBLIC "-//W3C//DTD SVG 20010904//EN"
 "http://www.w3.org/TR/2001/REC-SVG-20010904/DTD/svg10.dtd">
<svg version="1.0" xmlns="http://www.w3.org/2000/svg"
 width="300.000000pt" height="168.000000pt" viewBox="0 0 300.000000 168.000000"
 preserveAspectRatio="xMidYMid meet">

<g transform="translate(0.000000,168.000000) scale(0.100000,-0.100000)"
fill="#000000" stroke="none">
<path d="M100 1666 c0 -7 7 -19 15 -26 13 -11 15 -8 15 14 0 16 -5 26 -15 26
-8 0 -15 -6 -15 -14z"/>
<path d="M178 1638 c-2 -28 -7 -42 -15 -40 -18 3 -16 -5 7 -28 11 -11 20 -29
20 -41 0 -12 5 -19 12 -17 7 3 19 -1 26 -9 20 -19 35 -16 29 6 -3 12 1 22 9
25 16 6 19 46 3 46 -6 0 -13 -9 -16 -20 -3 -11 -12 -20 -19 -20 -17 0 -19 27
-3 32 6 2 14 27 17 56 l5 52 -36 0 c-35 0 -36 -1 -39 -42z"/>
<path d="M300 1640 c0 -35 3 -40 23 -40 18 0 19 2 7 10 -12 8 -11 10 8 10 12
0 22 6 22 14 0 30 -13 46 -36 46 -21 0 -24 -4 -24 -40z"/>
<path d="M900 1671 c0 -5 7 -14 15 -21 13 -10 15 -9 15 9 0 12 -6 21 -15 21
-8 0 -15 -4 -15 -9z"/>
<path d="M973 1666 c20 -16 22 -32 5 -50 -11 -11 -15 -11 -25 3 -10 13 -12 10
-13 -24 0 -29 3 -36 10 -25 7 11 10 4 10 -27 0 -24 4 -43 8 -43 5 0 13 -10 19
-22 6 -14 12 -18 16 -11 4 6 -1 19 -10 29 -18 17 -20 82 -3 114 13 26 22 77
10 60 -6 -10 -10 -11 -10 -2 0 6 -8 12 -17 12 -17 -1 -17 -1 0 -14z"/>
<path d="M1065 1663 c67 -171 73 -383 15 -554 -31 -93 -84 -192 -127 -239 -13
-14 -23 -28 -23 -32 0 -4 -36 -38 -80 -76 -74 -64 -258 -172 -294 -172 -16 0
7 108 35 161 10 20 15 40 10 45 -5 5 -5 18 0 29 8 18 9 17 5 -4 -3 -13 -1 -20
3 -15 16 18 21 72 7 84 -11 8 -15 8 -19 -2 -3 -10 -9 -11 -25 -1 -14 8 -22 9
-24 2 -5 -16 -128 11 -147 32 -36 40 -41 50 -41 83 0 19 -8 48 -17 65 -17 29
-21 31 -58 25 -22 -3 -41 -7 -42 -8 -1 -1 -3 -51 -4 -111 -3 -104 -1 -113 25
-162 16 -29 29 -53 31 -53 1 0 5 11 8 25 2 14 2 23 -1 20 -10 -10 -32 18 -32
40 0 26 24 50 40 40 15 -9 12 -130 -4 -168 -7 -18 -25 -45 -40 -60 -14 -15
-26 -32 -26 -36 0 -10 -62 -41 -82 -41 -8 0 -20 6 -26 12 -10 10 -15 10 -21
-1 -6 -8 -14 -10 -22 -5 -8 4 -31 9 -51 9 l-38 1 0 -298 0 -298 1033 0 c790 0
1036 3 1045 12 7 7 12 24 12 39 0 34 39 140 57 155 7 6 13 17 13 25 0 11 -2
11 -11 -1 -8 -11 -12 -12 -16 -3 -3 9 -11 8 -30 -5 -20 -13 -27 -14 -31 -4 -3
10 -7 10 -18 1 -8 -6 -14 -9 -14 -6 0 3 -14 0 -32 -7 -24 -11 -36 -11 -50 -2
-13 8 -23 8 -37 -1 -16 -10 -20 -9 -25 3 -9 23 -7 27 9 20 8 -3 15 -4 15 -3 0
1 -56 61 -126 132 -69 72 -137 145 -152 164 l-26 34 53 48 c29 27 68 61 87 76
32 24 36 25 47 9 12 -16 15 -16 57 2 25 10 63 17 85 16 22 -1 59 -2 83 -3 26
-1 41 -5 37 -11 -5 -8 52 -13 103 -9 4 0 9 -10 12 -23 5 -19 15 -24 55 -30 27
-4 51 -12 53 -18 2 -6 17 -17 34 -26 19 -10 28 -21 24 -30 -3 -8 1 -14 10 -14
18 0 58 -30 61 -47 1 -6 16 -25 32 -43 48 -52 48 -52 33 -83 -8 -16 -91 -105
-184 -198 l-168 -169 435 0 435 0 0 840 0 840 -971 0 c-921 0 -971 -1 -964
-17z m662 -229 c4 -11 28 -14 105 -14 87 0 99 -2 94 -16 -3 -9 -6 -36 -6 -60
0 -32 -4 -44 -15 -44 -10 0 -15 11 -16 33 -1 29 -2 30 -8 7 -7 -27 -45 -40
-63 -22 -14 14 -1 62 17 62 8 0 15 5 15 10 0 24 -39 8 -49 -20 -12 -37 -36
-41 -27 -5 4 15 2 25 -4 25 -7 0 -10 -14 -8 -32 2 -24 8 -33 21 -32 9 1 17 -4
17 -12 0 -9 -11 -14 -30 -14 -29 0 -30 1 -30 52 0 38 -3 49 -11 41 -6 -6 -10
-30 -7 -52 3 -34 0 -41 -14 -41 -14 0 -16 7 -12 44 4 26 2 46 -5 50 -7 5 -11
-9 -11 -43 0 -40 -4 -51 -16 -51 -8 0 -12 5 -9 10 3 6 -3 10 -14 10 -17 0 -21
6 -21 34 0 19 -4 38 -10 41 -24 15 -6 25 41 25 27 0 48 4 45 9 -3 5 -15 7 -26
4 -24 -6 -25 0 -4 21 17 18 50 7 61 -20z m335 11 c-2 -5 -16 -9 -32 -8 -16 2
-32 -2 -35 -7 -4 -7 62 -10 190 -10 176 0 196 -2 191 -16 -3 -9 -6 -36 -6 -60
0 -32 -4 -44 -15 -44 -10 0 -15 11 -16 33 -1 29 -2 30 -8 7 -5 -18 -14 -25
-31 -25 -22 0 -25 5 -25 35 0 32 3 36 35 41 l35 6 -42 2 -43 1 0 -50 c0 -38
-4 -50 -15 -50 -11 0 -15 13 -17 53 l-2 52 -3 -52 c-3 -38 -8 -53 -19 -53 -7
0 -14 9 -14 20 0 13 -7 20 -20 20 -11 0 -20 -5 -20 -11 0 -6 7 -9 15 -5 9 3
15 0 15 -9 0 -24 -47 -18 -64 7 -12 17 -16 19 -16 6 0 -20 -41 -31 -74 -18
-35 13 -37 66 -3 80 21 8 21 9 -5 9 -27 1 -28 -1 -28 -49 0 -36 -4 -50 -14
-50 -20 0 -27 107 -9 138 12 19 21 23 56 20 23 -2 41 -7 39 -13z m291 -200
c37 -5 47 -10 47 -24 0 -17 -8 -18 -90 -13 -75 4 -90 2 -90 -10 0 -12 19 -15
101 -16 99 0 100 0 110 26 14 36 25 42 89 42 71 0 100 -8 100 -29 0 -14 -10
-16 -75 -13 -48 3 -75 0 -75 -6 0 -13 36 -26 49 -18 14 9 41 -4 41 -20 0 -8
-4 -14 -10 -14 -5 0 -10 -9 -10 -20 0 -11 5 -20 10 -20 16 0 11 -37 -6 -44
-20 -8 -9 -26 17 -26 17 0 19 7 19 73 l0 74 30 0 c22 0 30 -5 30 -19 0 -10 -4
-18 -10 -18 -6 0 -10 -33 -10 -80 0 -66 -3 -82 -17 -87 -9 -4 -19 -1 -21 5 -2
7 -16 12 -32 12 -40 0 -62 25 -59 69 3 56 0 81 -11 81 -5 0 -10 -37 -12 -82
-3 -75 -5 -83 -23 -83 -18 0 -20 7 -20 79 0 54 -4 81 -12 83 -10 4 -13 -17
-13 -81 0 -79 -2 -86 -20 -86 -18 0 -20 7 -20 55 0 30 -4 55 -10 55 -5 0 -10
-15 -10 -33 0 -40 -15 -57 -50 -57 -37 0 -50 18 -50 65 0 53 13 65 72 65 26 0
48 5 48 10 0 6 -30 10 -70 10 l-70 0 0 -86 c0 -83 -1 -85 -22 -82 -21 3 -23 9
-26 86 -2 45 -7 82 -12 82 -6 0 -10 7 -10 15 0 8 5 15 11 15 5 0 15 13 20 29
6 18 21 34 37 39 26 9 37 9 135 -3z m-250 -63 c18 -4 24 -32 7 -32 -5 0 -10
-37 -12 -82 -3 -75 -5 -83 -23 -83 -17 0 -20 8 -23 53 -2 28 -7 52 -12 52 -4
0 -6 -8 -3 -18 2 -10 0 -30 -6 -45 -9 -22 -17 -27 -44 -27 -44 0 -57 15 -57
65 0 53 13 65 72 65 27 0 48 5 48 10 0 7 -25 10 -67 8 l-68 -3 0 -80 c0 -75
-2 -80 -23 -83 -21 -3 -22 -1 -22 82 0 110 -18 113 -22 4 -3 -75 -5 -83 -23
-83 -17 0 -20 8 -23 48 -3 50 -22 66 -22 19 0 -37 -17 -52 -57 -52 -34 0 -60
28 -49 55 3 8 1 17 -4 20 -6 4 -10 -7 -10 -22 0 -37 -16 -53 -55 -53 -39 0
-55 16 -55 55 0 36 17 62 44 67 11 1 21 9 24 16 2 8 -10 12 -43 12 l-46 0 1
-72 c2 -100 2 -98 -20 -98 -17 0 -20 7 -20 41 l0 41 -37 -7 c-44 -8 -47 -10
-38 -25 4 -7 18 -9 31 -6 21 6 24 3 24 -19 0 -22 -4 -25 -39 -25 -51 0 -71 26
-71 92 0 45 2 48 25 48 17 0 25 -6 26 -17 1 -12 4 -9 8 7 11 35 5 40 -40 40
-33 0 -39 3 -39 21 0 20 2 20 373 18 204 -2 380 -5 390 -7z m-1576 -598 c-3
-3 -12 -4 -19 -1 -8 3 -5 6 6 6 11 1 17 -2 13 -5z m1390 -440 c-3 -3 -12 -4
-19 -1 -8 3 -5 6 6 6 11 1 17 -2 13 -5z m-33 -64 c-21 -8 -37 -3 -29 10 3 4
15 6 27 2 21 -5 21 -6 2 -12z"/>
<path d="M1640 1376 c0 -14 5 -26 10 -26 6 0 10 9 10 19 0 11 -4 23 -10 26 -6
4 -10 -5 -10 -19z"/>
<path d="M1841 1344 c0 -11 3 -14 6 -6 3 7 2 16 -1 19 -3 4 -6 -2 -5 -13z"/>
<path d="M2083 1393 c9 -2 18 -14 18 -26 1 -19 2 -19 6 -4 3 13 11 17 24 14
12 -3 19 0 19 9 0 10 -12 14 -42 13 -24 -1 -35 -3 -25 -6z"/>
<path d="M2181 1384 c0 -11 3 -14 6 -6 3 7 2 16 -1 19 -3 4 -6 -2 -5 -13z"/>
<path d="M2032 1355 c0 -16 2 -22 5 -12 2 9 2 23 0 30 -3 6 -5 -1 -5 -18z"/>
<path d="M2071 1354 c0 -11 3 -14 6 -6 3 7 2 16 -1 19 -3 4 -6 -2 -5 -13z"/>
<path d="M2301 1344 c0 -11 3 -14 6 -6 3 7 2 16 -1 19 -3 4 -6 -2 -5 -13z"/>
<path d="M2280 1065 c0 -14 5 -25 10 -25 6 0 10 11 10 25 0 14 -4 25 -10 25
-5 0 -10 -11 -10 -25z"/>
<path d="M1470 1125 c0 -14 5 -25 10 -25 6 0 10 11 10 25 0 14 -4 25 -10 25
-5 0 -10 -11 -10 -25z"/>
<path d="M1660 1136 c0 -16 24 -24 58 -18 40 7 26 32 -18 32 -28 0 -40 -4 -40
-14z"/>
<path d="M1780 1135 c0 -8 5 -15 10 -15 6 0 10 7 10 15 0 8 -4 15 -10 15 -5 0
-10 -7 -10 -15z"/>
<path d="M1982 1065 c0 -16 2 -22 5 -12 2 9 2 23 0 30 -3 6 -5 -1 -5 -18z"/>
<path d="M1596 1072 c-2 -4 -1 -14 5 -22 7 -12 9 -10 9 8 0 23 -5 28 -14 14z"/>
<path d="M1720 1060 c0 -11 5 -20 10 -20 6 0 10 9 10 20 0 11 -4 20 -10 20 -5
0 -10 -9 -10 -20z"/>
<path d="M151 1644 c0 -11 3 -14 6 -6 3 7 2 16 -1 19 -3 4 -6 -2 -5 -13z"/>
<path d="M580 1590 c0 -5 3 -10 8 -10 4 0 20 -11 35 -25 15 -14 27 -20 27 -13
0 8 3 9 10 2 8 -8 7 -19 0 -39 -15 -39 -5 -43 15 -5 22 42 14 57 -41 80 -53
23 -54 23 -54 10z"/>
<path d="M344 1542 c-27 -24 -30 -34 -32 -87 -1 -75 12 -105 48 -105 14 0 31
5 37 11 8 8 17 8 31 0 25 -13 35 -14 27 -2 -3 5 -1 12 5 16 5 3 10 11 10 16 0
6 -4 7 -10 4 -5 -3 -10 0 -10 8 0 11 -11 12 -57 6 -31 -4 -60 -14 -64 -21 -6
-9 -9 -9 -9 -1 0 6 4 14 9 17 4 3 11 25 13 49 3 25 13 59 22 77 9 18 15 35 13
37 -2 1 -17 -9 -33 -25z m56 -146 c0 -9 -30 -14 -35 -6 -4 6 3 10 14 10 12 0
21 -2 21 -4z"/>
<path d="M1028 1545 c-8 -16 18 -59 27 -45 4 7 3 15 -2 19 -6 3 -12 13 -15 21
-2 7 -7 10 -10 5z"/>
<path d="M221 1473 c7 -12 15 -20 18 -17 3 2 -3 12 -13 22 -17 16 -18 16 -5
-5z"/>
<path d="M672 1455 c-21 -51 -22 -55 -7 -55 8 0 15 -5 15 -11 0 -5 -4 -7 -10
-4 -5 3 -10 2 -10 -4 0 -5 6 -11 13 -14 9 -3 9 -7 -2 -20 -11 -15 -11 -17 2
-17 17 0 12 -40 -7 -52 -8 -5 -7 -8 1 -8 20 0 33 35 33 89 0 30 5 51 13 54 7
3 6 6 -5 6 -11 1 -18 12 -20 34 l-4 32 -12 -30z"/>
<path d="M1037 1420 c3 -30 9 -62 13 -69 10 -19 0 77 -11 104 -4 11 -5 -4 -2
-35z"/>
<path d="M528 1423 c-10 -2 -18 -9 -18 -14 0 -6 5 -7 12 -3 7 5 8 3 4 -5 -5
-7 -15 -10 -23 -7 -8 3 -11 1 -8 -4 4 -6 21 -10 38 -9 18 1 51 -1 75 -5 42 -8
43 -7 30 13 -12 20 -64 39 -75 27 -4 -3 2 -6 12 -6 10 0 16 -3 12 -6 -9 -9
-48 6 -42 17 4 5 5 8 3 8 -2 -1 -11 -3 -20 -6z"/>
<path d="M313 1305 c4 -33 6 -61 7 -62 0 -2 5 -3 11 -3 6 0 8 8 5 18 -3 9 -8
34 -11 56 -8 64 -18 56 -12 -9z"/>
<path d="M341 1324 c0 -11 3 -14 6 -6 3 7 2 16 -1 19 -3 4 -6 -2 -5 -13z"/>
<path d="M504 1289 c-3 -6 -19 -7 -35 -4 -19 4 -29 3 -29 -5 0 -7 18 -10 50
-8 50 3 63 11 35 21 -8 4 -17 2 -21 -4z"/>
<path d="M43 1240 c-33 -14 -43 -25 -43 -42 0 -13 4 -18 8 -13 30 42 147 57
205 27 38 -20 62 -12 36 13 -41 37 -141 45 -206 15z"/>
<path d="M454 1211 c-48 -29 -53 -49 -11 -42 4 0 7 -3 7 -9 0 -5 8 -10 18 -9
9 0 12 3 5 5 -7 3 -9 12 -6 20 6 15 85 21 81 5 -5 -16 7 -16 30 1 l24 16 -24
8 c-12 4 -35 6 -50 5 -16 -1 -28 2 -28 8 0 16 -11 14 -46 -8z"/>
<path d="M873 1223 c-31 -12 -9 -24 41 -22 41 2 63 -3 100 -24 42 -23 46 -24
46 -7 0 38 -132 76 -187 53z"/>
<path d="M754 1192 c-17 -11 -25 -42 -11 -42 8 0 8 -3 -2 -9 -8 -5 -14 -24
-15 -42 0 -19 -5 -37 -11 -41 -6 -5 -5 -8 3 -8 6 0 12 -7 12 -15 0 -10 7 -15
18 -13 11 2 16 -3 14 -12 -2 -12 1 -11 11 2 8 11 21 15 34 12 29 -8 58 37 58
88 0 39 -15 58 -45 58 -13 0 -13 -1 0 -10 8 -5 10 -10 4 -10 -7 0 -19 11 -28
25 -17 26 -24 29 -42 17z m50 -77 c4 -13 10 -14 26 -5 16 9 18 8 14 -5 -3 -8
-10 -12 -15 -9 -5 3 -9 0 -9 -5 0 -6 -7 -11 -15 -11 -8 0 -15 5 -15 10 0 6 -7
10 -16 8 -10 -2 -19 3 -22 11 -3 10 0 12 12 8 9 -4 16 -2 16 3 0 16 17 12 24
-5z m-59 -25 c3 -5 1 -10 -4 -10 -6 0 -11 5 -11 10 0 6 2 10 4 10 3 0 8 -4 11
-10z m85 -24 c0 -2 -7 -9 -15 -16 -12 -10 -15 -10 -15 4 0 9 7 16 15 16 8 0
15 -2 15 -4z"/>
<path d="M918 1158 c5 -5 16 -8 23 -6 8 3 3 7 -10 11 -17 4 -21 3 -13 -5z"/>
<path d="M905 1131 c-6 -11 9 -23 19 -14 9 9 7 23 -3 23 -6 0 -12 -4 -16 -9z"/>
<path d="M105 1122 c-42 -5 -65 -37 -65 -90 0 -33 3 -43 13 -39 11 4 13 -9 9
-68 -2 -41 -1 -86 2 -101 l7 -27 20 21 c10 12 19 26 19 32 0 6 13 16 29 21 33
12 37 22 47 127 5 60 4 73 -7 71 -8 -1 -22 2 -33 6 -24 10 -49 -5 -56 -35 -3
-13 -13 -24 -23 -26 -10 -1 -16 1 -14 4 2 4 9 21 15 37 7 17 24 35 37 42 25
11 69 7 60 -6 -2 -4 2 -8 9 -8 7 0 13 6 13 13 0 17 -44 31 -82 26z"/>
<path d="M890 1074 c0 -8 5 -12 10 -9 6 4 8 11 5 16 -9 14 -15 11 -15 -7z"/>
<path d="M920 1079 c0 -5 5 -7 10 -4 6 3 10 8 10 11 0 2 -4 4 -10 4 -5 0 -10
-5 -10 -11z"/>
<path d="M870 1047 c0 -9 -4 -17 -10 -17 -5 0 -10 -4 -10 -10 0 -5 4 -10 9
-10 12 0 25 39 17 47 -3 4 -6 -1 -6 -10z"/>
<path d="M806 1002 c-13 -13 -4 -22 21 -22 21 0 24 -3 15 -12 -7 -7 -12 -16
-12 -20 0 -4 9 1 20 12 23 23 26 40 8 41 -7 0 -21 2 -30 4 -9 2 -19 0 -22 -3z"/>
<path d="M695 950 c-10 -11 -13 -20 -7 -20 6 0 16 9 22 20 6 11 9 20 7 20 -2
0 -12 -9 -22 -20z"/>
<path d="M757 923 c-12 -11 -8 -21 13 -26 17 -4 18 -2 9 14 -11 21 -13 22 -22
12z"/>
<path d="M640 890 c0 -5 5 -10 11 -10 5 0 7 5 4 10 -3 6 -8 10 -11 10 -2 0 -4
-4 -4 -10z"/>
<path d="M870 868 c0 -9 5 -20 10 -23 13 -8 13 5 0 25 -8 13 -10 13 -10 -2z"/>
<path d="M140 835 c-7 -8 -8 -15 -2 -15 5 0 15 7 22 15 7 8 8 15 2 15 -5 0
-15 -7 -22 -15z"/>
<path d="M668 843 c7 -3 16 -2 19 1 4 3 -2 6 -13 5 -11 0 -14 -3 -6 -6z"/>
<path d="M750 830 c0 -5 5 -10 10 -10 6 0 10 5 10 10 0 6 -4 10 -10 10 -5 0
-10 -4 -10 -10z"/>
<path d="M128 793 c7 -3 16 -2 19 1 4 3 -2 6 -13 5 -11 0 -14 -3 -6 -6z"/>
<path d="M736 785 c-3 -8 -1 -15 4 -15 6 0 10 7 10 15 0 8 -2 15 -4 15 -2 0
-6 -7 -10 -15z"/>
<path d="M100 764 c0 -8 5 -12 10 -9 6 3 10 10 10 16 0 5 -4 9 -10 9 -5 0 -10
-7 -10 -16z"/>
<path d="M236 752 c8 -31 44 -69 44 -47 0 8 -4 15 -10 15 -5 0 -16 12 -25 28
-14 24 -15 24 -9 4z"/>
<path d="M745 740 c-3 -5 -1 -10 4 -10 6 0 11 5 11 10 0 6 -2 10 -4 10 -3 0
-8 -4 -11 -10z"/>
<path d="M110 735 c0 -13 51 -56 60 -50 17 11 11 24 -20 40 -31 16 -40 18 -40
10z"/>
<path d="M200 706 c-14 -17 -7 -46 11 -46 6 0 9 6 6 14 -3 8 -2 16 3 18 5 2 6
9 1 16 -6 10 -10 10 -21 -2z"/>
<path d="M625 680 c-3 -5 1 -10 10 -10 9 0 13 5 10 10 -3 6 -8 10 -10 10 -2 0
-7 -4 -10 -10z"/>
<path d="M245 670 c3 -5 8 -10 11 -10 2 0 4 5 4 10 0 6 -5 10 -11 10 -5 0 -7
-4 -4 -10z"/>
<path d="M80 620 c0 -11 7 -20 15 -20 17 0 18 2 9 24 -9 23 -24 20 -24 -4z"/>
<path d="M1982 610 c0 -14 2 -19 5 -12 2 6 2 18 0 25 -3 6 -5 1 -5 -13z"/>
<path d="M2091 604 c0 -11 3 -14 6 -6 3 7 2 16 -1 19 -3 4 -6 -2 -5 -13z"/>
<path d="M1983 520 c0 -30 2 -43 4 -27 2 15 2 39 0 55 -2 15 -4 2 -4 -28z"/>
<path d="M1891 544 c0 -11 3 -14 6 -6 3 7 2 16 -1 19 -3 4 -6 -2 -5 -13z"/>
<path d="M2072 510 c0 -14 2 -19 5 -12 2 6 2 18 0 25 -3 6 -5 1 -5 -13z"/>
<path d="M1900 498 c0 -7 4 -19 9 -27 7 -10 9 -7 8 12 -2 26 -17 39 -17 15z"/>
<path d="M1860 470 c6 -11 13 -20 16 -20 2 0 0 9 -6 20 -6 11 -13 20 -16 20
-2 0 0 -9 6 -20z"/>
<path d="M1805 470 c3 -5 8 -10 11 -10 2 0 4 5 4 10 0 6 -5 10 -11 10 -5 0 -7
-4 -4 -10z"/>
<path d="M1746 435 c9 -14 21 -25 27 -25 6 0 0 11 -13 25 -13 14 -25 25 -27
25 -2 0 4 -11 13 -25z"/>
<path d="M1992 440 c-7 -12 -12 -58 -12 -122 1 -107 15 -119 21 -18 2 30 7 57
11 60 6 5 11 58 9 88 -1 18 -15 15 -29 -8z"/>
<path d="M1938 418 c-15 -12 -15 -18 1 -67 21 -64 33 -56 20 13 -5 26 -6 52
-3 57 7 13 1 11 -18 -3z"/>
<path d="M2034 370 c-6 -27 -7 -50 -4 -50 4 0 10 12 14 28 3 15 8 37 12 50 3
12 2 22 -3 22 -5 0 -14 -22 -19 -50z"/>
<path d="M1890 402 c0 -19 30 -86 35 -80 3 3 0 20 -6 39 -13 38 -29 60 -29 41z"/>
<path d="M1850 394 c0 -13 52 -96 57 -91 6 6 -33 84 -47 92 -5 3 -10 3 -10 -1z"/>
<path d="M2070 374 c-27 -75 -44 -104 -51 -92 -5 8 -8 0 -6 -19 1 -18 4 -33 7
-33 3 0 22 35 43 77 26 51 35 79 28 86 -7 7 -14 1 -21 -19z"/>
<path d="M1810 379 c1 -15 24 -45 54 -69 18 -15 19 -14 4 15 -20 38 -58 74
-58 54z"/>
<path d="M2110 350 c-6 -12 -9 -24 -7 -27 3 -2 11 5 17 17 6 12 9 24 7 27 -3
2 -11 -5 -17 -17z"/>
<path d="M2157 304 c-21 -29 -14 -31 14 -5 11 10 17 21 12 24 -4 3 -16 -6 -26
-19z"/>
<path d="M2210 309 c0 -5 5 -7 10 -4 6 3 10 8 10 11 0 2 -4 4 -10 4 -5 0 -10
-5 -10 -11z"/>
<path d="M2080 299 c0 -5 5 -7 10 -4 6 3 10 8 10 11 0 2 -4 4 -10 4 -5 0 -10
-5 -10 -11z"/>
<path d="M1950 276 c0 -8 5 -18 10 -21 6 -3 10 3 10 14 0 12 -4 21 -10 21 -5
0 -10 -6 -10 -14z"/>
<path d="M2159 263 c-13 -17 -13 -17 6 -3 11 8 22 16 24 17 2 2 0 3 -6 3 -6 0
-17 -8 -24 -17z"/>
<path d="M1920 261 c0 -5 7 -14 15 -21 12 -10 15 -10 15 3 0 8 -7 17 -15 21
-8 3 -15 2 -15 -3z"/>
<path d="M2215 170 c-3 -6 1 -7 9 -4 18 7 21 14 7 14 -6 0 -13 -4 -16 -10z"/>
<path d="M2132 59 c-24 -30 -15 -50 10 -21 23 26 29 40 21 45 -5 2 -18 -8 -31
-24z"/>
</g>
</svg>
