<?xml version="1.0" standalone="no"?>
<!DOCTYPE svg PUBLIC "-//W3C//DTD SVG 20010904//EN"
 "http://www.w3.org/TR/2001/REC-SVG-20010904/DTD/svg10.dtd">
<svg version="1.0" xmlns="http://www.w3.org/2000/svg"
 width="300.000000pt" height="168.000000pt" viewBox="0 0 300.000000 168.000000"
 preserveAspectRatio="xMidYMid meet">

<g transform="translate(0.000000,168.000000) scale(0.100000,-0.100000)"
fill="#000000" stroke="none">
<path d="M1005 1553 c4 -32 10 -60 14 -63 15 -12 11 -40 -7 -40 -19 0 -42 -18
-42 -32 0 -5 9 -4 19 2 11 5 23 10 28 10 4 -1 -3 -7 -17 -15 -17 -9 -29 -10
-37 -3 -7 5 -18 8 -25 6 -8 -3 -5 -9 10 -17 19 -10 31 -9 67 4 27 11 44 23 43
34 0 9 3 39 7 67 7 45 5 53 -17 77 -41 44 -51 36 -43 -30z m42 -49 c-3 -3 -12
-4 -19 -1 -8 3 -5 6 6 6 11 1 17 -2 13 -5z"/>
<path d="M703 1593 c-18 -7 -16 -58 2 -73 9 -7 27 -10 45 -7 45 10 61 0 49
-30 -12 -32 -12 -33 6 -33 11 0 15 -11 15 -36 0 -28 4 -35 18 -32 9 1 23 -1
30 -5 7 -5 12 -3 12 4 0 8 6 6 18 -4 10 -10 21 -15 23 -13 2 2 5 -86 6 -196 2
-111 0 -198 -3 -195 -3 3 -6 44 -6 91 0 79 -7 102 -23 76 -3 -5 -20 -10 -37
-10 -24 0 -29 -3 -24 -16 5 -12 2 -15 -10 -10 -8 3 -20 6 -25 6 -6 0 -8 4 -5
8 3 5 -1 9 -9 9 -8 0 -12 -4 -9 -9 3 -4 0 -8 -5 -8 -6 0 -11 5 -11 11 0 6 -7
9 -15 5 -21 -8 -75 4 -75 16 0 6 7 7 16 4 8 -3 12 -2 9 3 -3 5 3 11 12 13 10
2 14 6 8 10 -17 10 -55 -10 -55 -31 0 -10 -9 -21 -20 -24 -15 -4 -19 -1 -17
14 2 10 6 22 10 25 14 15 6 20 -23 16 -19 -3 -30 0 -30 7 0 7 5 9 13 5 6 -4 3
2 -7 14 -22 25 -54 29 -62 7 -4 -8 -10 -13 -15 -10 -4 3 -13 -3 -19 -14 -10
-19 -8 -19 20 -9 17 6 34 8 37 4 4 -3 1 -6 -5 -6 -7 0 -12 -8 -11 -17 0 -11 3
-13 6 -5 2 6 16 12 29 12 15 0 23 -4 19 -10 -4 -6 -11 -7 -17 -4 -7 5 -9 1 -5
-9 5 -14 1 -14 -39 -2 -24 7 -41 9 -38 4 3 -5 -1 -9 -10 -9 -8 0 -16 4 -18 10
-1 5 -33 12 -70 16 -59 6 -68 5 -68 -10 0 -9 -5 -16 -11 -16 -5 0 -7 -4 -4
-10 8 -13 -36 -13 -69 0 -20 7 -27 6 -35 -8 -10 -16 -10 -16 -11 0 0 9 5 20
10 23 15 9 2 25 -15 19 -8 -4 -12 -10 -9 -15 5 -9 3 -10 -61 -13 -22 -1 -49
-5 -60 -10 -11 -4 -15 -4 -10 1 16 13 16 33 1 33 -8 0 -18 9 -21 20 -14 46
-23 13 -24 -93 l-2 -113 310 2 c182 1 313 -1 316 -7 4 -5 -119 -9 -309 -9
l-316 0 0 -475 0 -475 454 0 c348 1 456 3 459 13 4 9 6 9 6 0 1 -7 5 -13 11
-13 5 0 8 25 6 60 -3 38 0 60 7 60 5 0 7 3 4 6 -3 4 -1 16 5 28 11 20 10 20
-7 6 -17 -14 -18 -13 -12 4 6 16 5 17 -8 6 -9 -7 -19 -10 -23 -6 -4 4 1 12 11
17 13 8 17 24 17 74 0 35 -4 75 -10 90 -7 19 -7 24 2 19 8 -5 9 -2 5 10 -4 9
-1 25 5 35 11 18 13 18 45 -3 25 -16 35 -30 40 -60 6 -38 6 -38 44 -33 22 3
39 1 39 -4 0 -5 -18 -9 -40 -9 l-40 0 0 -84 c0 -55 4 -87 12 -92 27 -17 188
-48 188 -36 0 2 -17 44 -39 95 -40 96 -58 163 -41 152 6 -3 10 -2 10 4 0 5 -4
13 -10 16 -5 3 -10 16 -10 27 0 27 5 21 25 -26 9 -21 11 -35 6 -31 -18 10 -13
-4 13 -38 13 -18 27 -42 30 -54 12 -38 57 -112 74 -123 10 -5 12 -10 5 -10 -6
0 -15 5 -18 10 -3 6 -14 10 -23 9 -12 0 -13 -2 -3 -6 20 -8 53 -43 40 -43 -5
0 -7 -5 -3 -11 7 -12 21 -1 26 21 2 8 9 21 16 28 7 8 9 18 6 24 -5 7 -2 8 5 4
7 -5 10 -15 7 -23 -4 -11 -2 -13 9 -9 8 3 15 1 15 -3 0 -12 -28 -22 -32 -12
-2 4 -18 -15 -37 -43 -19 -28 -27 -45 -17 -37 10 9 20 11 24 5 11 -15 164 -17
174 -2 6 10 8 10 8 1 0 -7 11 -13 24 -13 18 0 26 7 29 23 l4 22 2 -23 1 -22
590 0 c553 0 589 2 584 18 -5 15 -4 15 8 1 9 -10 33 -16 76 -18 63 -2 64 -2
56 21 -6 20 -5 21 9 9 9 -7 14 -17 11 -22 -3 -5 8 -9 23 -9 23 0 32 7 46 37
l18 38 -5 -38 c-4 -34 -3 -37 20 -37 21 0 24 5 24 35 0 21 -5 35 -12 35 -10 0
-10 2 -1 8 17 10 17 193 0 204 -9 6 -9 8 1 8 9 0 12 44 12 186 0 174 -1 186
-17 178 -10 -4 -28 -7 -40 -7 -15 1 -20 -4 -16 -14 3 -8 12 -12 22 -8 11 4 13
3 6 -4 -7 -7 -22 -8 -45 -1 -26 7 -31 7 -22 -2 7 -7 12 -17 12 -23 0 -7 -3 -7
-8 0 -5 7 -18 7 -42 -2 -35 -13 -35 -13 -5 -10 24 1 31 -2 33 -19 2 -11 -5
-27 -14 -35 -16 -13 -16 -12 -6 8 16 29 15 33 -4 33 -9 0 -14 -6 -12 -12 3 -7
-4 -21 -14 -30 -20 -20 -26 -10 -6 10 9 9 9 15 -1 25 -11 10 -13 9 -7 -3 7
-13 6 -13 -6 0 -16 18 -38 24 -38 10 0 -5 -7 -7 -16 -3 -13 5 -13 7 -2 14 10
7 10 9 0 9 -7 0 -15 -7 -18 -15 -4 -8 -11 -12 -17 -8 -6 3 -7 1 -3 -5 4 -6 13
-9 21 -5 8 3 15 3 15 0 0 -3 -25 -13 -55 -22 -51 -14 -61 -24 -55 -50 8 -38 8
-45 -2 -45 -5 0 -8 7 -5 15 4 8 2 17 -4 21 -6 3 -8 12 -5 20 3 7 1 16 -4 19
-6 4 -10 1 -10 -4 0 -6 -5 -10 -12 -9 -6 2 -15 -8 -19 -22 -4 -16 -7 -19 -8
-7 -1 9 -6 17 -12 17 -5 0 -8 -4 -5 -9 3 -4 -12 -13 -33 -20 -28 -8 -42 -19
-51 -41 -7 -17 -17 -30 -22 -30 -6 0 -3 11 6 25 19 29 11 56 -8 30 -7 -9 -25
-18 -42 -18 -16 -1 -32 -5 -35 -10 -3 -4 -16 -9 -28 -12 -17 -3 -21 0 -17 10
3 8 1 17 -4 20 -6 4 -10 12 -10 18 0 8 3 8 9 -1 6 -11 11 -10 25 3 19 19 22 6
4 -14 -11 -11 -10 -13 5 -7 10 3 21 6 23 6 2 0 4 12 5 28 0 15 3 21 6 15 2 -7
11 -13 19 -13 10 0 12 5 8 12 -6 10 -4 10 8 0 14 -11 18 -10 26 4 9 16 10 16
16 -3 10 -31 35 -25 31 8 -3 22 1 28 21 32 19 3 22 2 13 -9 -6 -8 -8 -14 -3
-14 5 0 3 -4 -5 -9 -9 -6 -10 -11 -2 -15 10 -7 16 6 12 28 -1 5 5 6 14 2 11
-4 14 -2 9 6 -5 8 -2 9 10 5 10 -4 15 -3 11 3 -7 11 29 32 40 22 5 -4 5 -1 0
6 -5 10 -2 13 11 10 11 -2 23 4 29 16 13 25 41 36 32 12 -4 -9 -2 -16 3 -16 6
0 10 5 10 10 0 6 7 10 15 10 8 0 13 6 11 13 -1 6 -1 9 1 6 2 -4 13 -5 23 -2
11 3 20 1 20 -5 0 -5 9 -12 21 -15 15 -4 19 -2 15 9 -3 8 1 14 9 14 8 0 15 8
14 18 0 10 -3 12 -6 5 -2 -7 -12 -13 -21 -13 -14 0 -14 2 -3 9 12 7 11 10 -5
14 -14 3 29 1 54 -3 1 0 2 -7 2 -15 0 -20 16 -19 24 1 3 8 10 12 16 9 6 -3 13
1 16 10 5 11 14 15 29 11 20 -5 22 -3 18 17 -4 17 -2 19 5 8 19 -27 42 6 42
61 l0 49 -49 -3 c-27 -2 -56 -9 -64 -16 -12 -10 -16 -9 -21 4 -9 23 -8 25 12
23 9 -1 24 1 32 4 29 11 70 14 70 6 0 -5 4 -9 8 -9 4 0 9 14 10 31 2 29 1 31
-23 25 -14 -4 -25 -2 -25 4 0 5 11 10 25 10 14 0 25 5 25 11 0 8 -15 10 -45 7
-25 -3 -45 -2 -45 3 0 4 19 10 43 12 42 3 -72 5 -213 3 -41 -1 -111 0 -155 0
-44 1 -72 -2 -61 -5 10 -4 -45 -13 -123 -19 -125 -11 -144 -10 -157 3 -14 13
-13 15 6 15 12 0 19 4 15 9 -3 6 -14 9 -24 8 -13 -1 -18 -8 -16 -24 3 -25 -11
-28 -170 -38 -63 -4 -85 -3 -75 4 13 9 13 11 -1 11 -9 0 -19 -7 -23 -15 -7
-19 -64 -19 -89 -1 -15 12 -11 14 35 20 29 4 61 7 70 7 10 0 15 6 11 15 -6 16
-19 18 -28 4 -3 -6 -11 -10 -16 -10 -6 0 -7 4 -4 10 3 6 1 10 -4 10 -6 0 -11
-7 -11 -16 0 -12 -9 -15 -38 -13 -21 2 -43 0 -50 -5 -8 -5 -10 -2 -6 9 4 11 2
14 -9 9 -12 -4 -14 -1 -10 15 4 17 2 20 -11 15 -35 -13 -17 -42 47 -73 64 -32
69 -32 187 -16 19 2 80 7 135 11 55 3 128 9 163 13 34 4 62 4 62 -1 0 -4 -8
-8 -17 -8 -19 0 -218 -17 -293 -25 -156 -16 -161 -17 -149 -31 6 -8 16 -11 22
-7 23 14 55 9 54 -8 -1 -18 -26 -14 -39 5 -15 23 -19 -23 -4 -57 13 -33 12
-47 -4 -47 -4 0 -10 18 -14 40 -5 32 -11 40 -27 40 -15 0 -19 5 -14 19 3 11 1
22 -5 26 -6 4 -10 -7 -11 -27 0 -27 -2 -30 -9 -13 -6 14 -9 15 -10 5 -1 -9 -6
-5 -13 10 -10 23 -11 21 -17 -30 -3 -34 -8 -49 -12 -38 -4 11 -14 15 -28 11
-14 -4 -18 -9 -11 -16 5 -5 7 -16 4 -23 -4 -11 -9 -12 -19 -3 -8 6 -11 16 -7
23 4 6 -2 4 -12 -4 -14 -11 -19 -12 -22 -2 -3 6 -12 12 -21 11 -10 0 -12 -3
-5 -5 7 -3 10 -11 7 -19 -4 -8 5 -15 25 -20 45 -10 38 -21 -11 -18 -66 4 -32
-6 52 -16 69 -8 71 -9 24 -10 -87 -2 -144 10 -155 32 -11 20 -13 18 60 79 12
10 21 15 21 12 0 -4 7 -1 15 6 9 7 28 10 48 7 28 -5 29 -5 10 5 -13 6 -23 14
-23 18 0 13 39 18 44 6 2 -6 5 -1 5 12 1 12 -4 22 -11 22 -6 0 -8 3 -5 6 4 4
13 1 21 -5 11 -9 16 -9 22 0 4 7 3 9 -3 6 -6 -4 -16 0 -23 8 -18 22 -30 18
-30 -10 0 -18 -5 -25 -19 -25 -11 0 -22 4 -25 9 -8 12 -118 -106 -134 -142 -7
-16 -8 -26 -3 -22 5 3 12 1 16 -5 4 -6 -23 -10 -77 -9 -76 1 -79 2 -39 10 67
13 73 20 14 14 -48 -5 -53 -4 -53 15 0 11 -4 20 -10 20 -5 0 -10 -6 -10 -12 0
-9 -3 -8 -10 2 -8 12 -10 12 -16 -3 -3 -9 -14 -17 -23 -18 -10 0 -11 -2 -3 -6
17 -7 15 -23 -2 -23 -8 0 -17 -4 -20 -9 -4 -5 4 -7 16 -4 17 3 19 2 9 -5 -8
-6 -9 -12 -3 -16 5 -3 15 1 22 9 14 16 30 20 30 7 0 -5 -11 -14 -26 -20 -19
-9 -30 -9 -49 0 l-23 13 46 92 c61 121 77 139 131 150 29 5 49 16 60 32 l16
24 -48 -5 c-27 -3 -47 -1 -47 4 0 5 -19 9 -42 8 -24 -1 -81 -1 -128 0 -84 3
-84 3 -30 10 72 10 308 10 260 0 l-35 -7 32 -2 c39 -1 42 -6 36 -53 -4 -29
-10 -38 -25 -38 -12 0 -17 4 -12 12 4 7 3 8 -4 4 -17 -10 -15 -26 3 -26 8 0
15 -8 15 -17 0 -10 5 -25 11 -33 8 -12 9 -9 5 13 -5 19 -3 26 6 25 9 -2 12 9
11 35 -2 20 -1 37 1 37 2 0 11 -12 21 -26 9 -15 12 -23 6 -20 -14 9 -14 -3 0
-42 l10 -30 43 41 c46 45 68 79 64 100 -1 6 4 34 12 60 l15 48 50 -8 c51 -8
173 -8 258 0 26 2 47 1 47 -3 0 -8 20 -8 270 -7 102 0 274 -1 383 -2 l197 -3
0 100 c0 100 0 101 -24 96 -13 -2 -44 0 -69 5 -31 5 -49 5 -57 -3 -8 -8 -13
-7 -20 3 -7 12 -11 12 -24 2 -9 -8 -16 -10 -16 -6 0 4 -6 2 -13 -4 -18 -14
-30 -2 -15 16 8 11 7 12 -6 7 -9 -3 -16 -11 -16 -16 0 -6 -9 -8 -20 -5 -11 3
-23 1 -26 -4 -3 -5 -19 -9 -35 -9 -18 0 -28 -4 -24 -10 4 -6 10 -8 15 -5 13 8
19 -22 7 -35 -9 -10 -9 -11 0 -6 6 3 14 2 17 -3 4 -5 -3 -12 -13 -16 -11 -3
-22 -14 -25 -23 -3 -9 -15 -23 -26 -30 -17 -10 -20 -10 -20 4 0 8 5 12 10 9 6
-3 10 -1 10 4 0 6 -7 11 -15 11 -22 0 -30 -4 -27 -14 2 -5 -4 -6 -13 -2 -9 3
-19 6 -21 6 -3 0 -2 5 1 10 3 6 1 10 -4 10 -6 0 -11 -7 -11 -15 0 -16 -30 -10
-42 9 -8 12 -148 15 -148 3 0 -5 -6 -7 -12 -5 -7 3 -13 15 -13 29 0 19 -5 24
-25 24 -14 0 -31 4 -37 8 -7 5 -17 5 -23 2 -5 -3 -10 -2 -10 3 0 6 -13 15 -30
21 -16 5 -30 16 -30 24 0 21 -44 41 -66 29 -11 -5 -25 -7 -32 -5 -8 3 -28 -9
-45 -27 -21 -22 -33 -28 -36 -19 -7 22 -24 35 -54 43 -24 6 -30 3 -34 -14 -4
-16 -12 -21 -32 -18 -14 1 -32 -1 -39 -5 -6 -5 -12 -4 -12 2 0 13 -47 15 -55
2 -3 -5 -20 -7 -38 -4 -17 2 -55 1 -84 -5 -37 -6 -59 -5 -81 4 -17 7 -33 10
-36 7 -3 -4 -6 -1 -6 5 0 6 -7 9 -15 6 -8 -4 -15 -12 -15 -19 0 -18 -20 -30
-29 -18 -12 20 -79 24 -117 8 -21 -9 -44 -13 -51 -11 -7 3 -29 -2 -49 -12 -35
-16 -36 -16 -50 3 -14 19 -16 19 -65 2 -47 -17 -52 -17 -63 -2 -10 15 -14 15
-44 0 -17 -9 -32 -22 -32 -28 0 -7 -4 -5 -9 3 -12 21 -21 259 -10 266 5 3 9 9
9 13 0 11 -47 31 -73 31 -37 0 -51 14 -34 32 9 8 17 28 19 44 3 27 5 29 46 26
33 -3 43 0 49 15 4 10 11 21 16 24 5 4 0 10 -12 14 -23 7 -51 -9 -51 -30 0 -9
-11 -10 -42 -4 -24 4 -58 6 -75 2 -30 -5 -33 -3 -33 19 0 39 -29 57 -67 41z
m2047 -437 c0 -3 -4 -8 -10 -11 -5 -3 -10 -1 -10 4 0 6 5 11 10 11 6 0 10 -2
10 -4z m-2728 -38 c-7 -7 -12 -8 -12 -2 0 14 12 26 19 19 2 -3 -1 -11 -7 -17z
m513 -8 c3 -5 1 -10 -4 -10 -6 0 -11 5 -11 10 0 6 2 10 4 10 3 0 8 -4 11 -10z
m2195 0 c0 -5 -4 -10 -10 -10 -5 0 -10 -7 -10 -15 0 -8 -8 -15 -17 -14 -11 0
-13 3 -5 6 6 2 12 13 12 24 0 10 7 19 15 19 8 0 15 -4 15 -10z m-2435 -19 c10
-17 -12 -21 -25 -6 -10 12 -10 15 3 15 9 0 18 -4 22 -9z m1443 -3 c35 0 26
-18 -10 -18 l-33 -1 30 -14 c29 -13 29 -13 -31 -14 -43 -1 -65 -6 -75 -17 -10
-13 -10 -17 2 -25 16 -10 50 -2 62 15 5 8 10 6 17 -4 17 -25 11 -40 -15 -40
-14 0 -25 4 -25 9 0 5 -11 4 -25 -2 -14 -7 -25 -16 -25 -22 0 -13 -207 -18
-282 -7 -31 5 -55 5 -52 0 3 -4 -2 -8 -11 -8 -9 0 -13 5 -10 10 3 6 1 10 -4
10 -6 0 -11 -4 -11 -10 0 -6 -23 -9 -52 -8 l-53 1 45 7 c45 7 45 7 -15 8 -33
0 -54 -2 -47 -5 6 -2 12 -15 12 -28 0 -19 -4 -22 -22 -17 -12 3 -17 7 -10 10
17 5 15 22 -4 22 -8 0 -13 4 -10 9 3 5 -3 11 -15 14 -15 4 -18 2 -10 -7 9 -10
4 -11 -24 -2 -32 10 -33 11 -12 19 12 4 31 6 43 3 18 -5 21 -2 17 14 -3 10
-12 21 -22 23 -14 4 -14 5 2 6 10 0 20 -6 24 -15 5 -13 8 -13 15 -2 7 9 8 7 4
-7 -5 -19 -1 -21 42 -21 26 0 50 4 54 10 8 11 48 16 48 5 0 -4 -6 -10 -12 -12
-7 -3 -3 -6 9 -6 13 -1 22 2 22 7 -3 19 2 25 11 12 7 -11 10 -7 11 20 1 35 1
35 8 6 8 -36 31 -47 32 -14 1 21 2 21 7 3 12 -34 35 -30 30 5 -3 16 -1 30 4
30 7 0 12 -29 10 -51 -1 -3 13 -6 29 -5 27 1 30 4 26 29 -2 15 0 27 4 27 4 0
9 -12 11 -27 3 -25 7 -28 38 -28 19 0 41 4 48 9 7 5 12 4 12 -3 0 -7 5 -9 10
-6 16 10 12 33 -7 38 -14 4 -12 5 5 6 18 1 22 -4 22 -29 l0 -31 -75 2 c-42 1
-78 -1 -82 -5 -9 -9 149 -7 163 2 6 4 15 32 19 62 4 30 10 59 12 64 3 4 26 5
52 1 25 -3 56 -7 69 -7z m-890 -12 c2 -2 6 -26 9 -52 2 -27 10 -52 16 -56 9
-6 9 -8 0 -8 -7 0 -13 -7 -13 -15 0 -8 7 -15 15 -15 14 0 19 12 16 33 -1 4 10
5 24 1 16 -4 25 -2 25 6 0 7 6 5 16 -5 11 -10 15 -27 12 -51 -3 -26 -1 -33 10
-29 7 3 32 5 55 6 33 0 38 2 22 9 -19 8 -19 9 3 9 12 1 22 -3 22 -9 0 -5 10
-10 23 -11 16 -1 13 -4 -13 -12 -19 -6 -39 -16 -43 -21 -5 -7 -7 -4 -3 7 4 12
0 17 -14 17 -11 0 -20 -7 -20 -15 0 -8 -4 -15 -10 -15 -5 0 -10 -5 -10 -11 0
-5 5 -7 11 -3 8 5 10 -1 7 -20 -3 -15 -1 -26 6 -26 6 0 3 -5 -6 -11 -10 -5
-18 -15 -18 -22 0 -7 4 -6 10 3 8 12 10 12 16 -3 3 -9 4 -26 1 -37 -3 -12 0
-20 8 -20 14 0 45 -69 45 -100 0 -28 -17 -25 -24 5 -5 21 -10 24 -25 16 -10
-6 -20 -9 -22 -7 -10 9 -79 14 -74 5 4 -5 22 -9 41 -9 30 0 34 -3 35 -27 1
-16 3 -53 4 -83 2 -30 -2 -61 -9 -69 -8 -11 -8 -13 2 -7 7 4 12 1 12 -8 0 -21
-3 -20 -32 7 -13 12 -23 28 -20 35 2 7 -1 12 -7 12 -6 0 -11 -7 -11 -17 0 -16
-14 -10 -16 8 -1 5 -3 12 -4 17 -2 4 -3 18 -4 32 -1 25 -1 25 -126 30 l-125 6
115 4 c63 2 120 3 126 3 7 0 10 13 9 31 -2 17 -4 31 -5 31 -6 0 -6 66 1 71 5
3 9 21 9 40 0 27 -4 34 -19 34 -15 0 -18 5 -14 21 5 17 2 20 -13 16 -48 -14
-89 -18 -74 -8 8 6 38 13 67 17 43 5 53 10 53 25 0 11 -4 19 -10 19 -5 0 -10
-8 -10 -17 0 -15 -2 -15 -9 -4 -7 11 -19 12 -60 4 -28 -6 -51 -7 -51 -2 0 4
23 10 51 14 43 6 50 10 46 26 -4 15 0 19 24 19 19 0 29 5 29 15 0 12 -5 13
-17 7 -10 -5 -27 -8 -38 -8 -11 1 -24 -3 -28 -9 -5 -6 -7 0 -4 13 5 22 5 22
-99 17 l-104 -4 0 86 0 86 102 -7 c56 -4 104 -8 106 -10z m135 -15 c2 -10 1
-25 -4 -32 -7 -11 -9 -11 -9 3 0 9 -3 23 -6 32 -3 9 -2 16 4 16 5 0 12 -9 15
-19z m1000 3 c-8 -4 -9 -13 -3 -30 6 -15 6 -24 0 -24 -6 0 -10 3 -10 8 0 4 -3
17 -6 30 -5 17 -2 22 12 21 11 0 14 -3 7 -5z m-1090 -29 c-3 -9 -8 -14 -10
-11 -3 3 -2 9 2 15 9 16 15 13 8 -4z m-556 -42 c-3 -10 -5 -2 -5 17 0 19 2 27
5 18 2 -10 2 -26 0 -35z m893 37 c0 -5 -7 -7 -15 -4 -8 4 -15 8 -15 10 0 2 7
4 15 4 8 0 15 -4 15 -10z m-963 -22 c-3 -8 -6 -5 -6 6 -1 11 2 17 5 13 3 -3 4
-12 1 -19z m219 7 c9 -8 11 -15 6 -15 -5 0 -15 7 -22 15 -7 8 -9 15 -6 15 4 0
14 -7 22 -15z m664 -5 c0 -11 -2 -20 -4 -20 -2 0 -6 9 -9 20 -3 11 -1 20 4 20
5 0 9 -9 9 -20z m930 10 c0 -5 -5 -10 -11 -10 -5 0 -7 5 -4 10 3 6 8 10 11 10
2 0 4 -4 4 -10z m-1040 -4 c0 -3 -4 -8 -10 -11 -5 -3 -10 -1 -10 4 0 6 5 11
10 11 6 0 10 -2 10 -4z m-480 -10 c0 -3 -4 -8 -10 -11 -5 -3 -10 -1 -10 4 0 6
5 11 10 11 6 0 10 -2 10 -4z m327 -11 c0 -8 -4 -15 -9 -15 -10 0 -11 14 -1 23
9 10 10 9 10 -8z m73 5 c0 -5 -5 -10 -11 -10 -5 0 -7 5 -4 10 3 6 8 10 11 10
2 0 4 -4 4 -10z m47 4 c-3 -3 -12 -4 -19 -1 -8 3 -5 6 6 6 11 1 17 -2 13 -5z
m1316 -6 c-15 -7 -30 -7 -50 0 -26 10 -24 10 22 11 42 0 46 -2 28 -11z m152 2
c-3 -5 -11 -10 -16 -10 -6 0 -7 5 -4 10 3 6 11 10 16 10 6 0 7 -4 4 -10z m125
6 c0 -3 -4 -8 -10 -11 -5 -3 -10 -1 -10 4 0 6 5 11 10 11 6 0 10 -2 10 -4z
m-835 -26 c-3 -5 -13 -10 -21 -10 -8 0 -14 5 -14 10 0 6 9 10 21 10 11 0 17
-4 14 -10z m-740 -41 c11 -16 1 -19 -13 -3 -7 8 -8 14 -3 14 5 0 13 -5 16 -11z
m-742 -6 c-7 -2 -19 -2 -25 0 -7 3 -2 5 12 5 14 0 19 -2 13 -5z m44 1 c-3 -3
-12 -4 -19 -1 -8 3 -5 6 6 6 11 1 17 -2 13 -5z m126 -1 c-7 -2 -21 -2 -30 0
-10 3 -4 5 12 5 17 0 24 -2 18 -5z m165 0 c-10 -2 -26 -2 -35 0 -10 3 -2 5 17
5 19 0 27 -2 18 -5z m582 -19 c0 -2 -7 -4 -15 -4 -8 0 -15 4 -15 10 0 5 7 7
15 4 8 -4 15 -8 15 -10z m60 6 c0 -5 -12 -10 -27 -9 -25 0 -26 1 -8 9 27 12
35 12 35 0z m-100 -4 c0 -3 -4 -8 -10 -11 -5 -3 -10 -1 -10 4 0 6 5 11 10 11
6 0 10 -2 10 -4z m-335 -14 c-10 -10 -46 -12 -62 -3 -11 6 -3 8 26 8 23 0 39
-2 36 -5z m-155 -12 c0 -13 -11 -13 -30 0 -12 8 -11 10 8 10 12 0 22 -4 22
-10z m53 3 c-7 -2 -21 -2 -30 0 -10 3 -4 5 12 5 17 0 24 -2 18 -5z m636 -9 c2
-2 -29 -3 -70 -2 -46 0 -64 4 -49 8 23 6 110 2 119 -6z m1371 6 c-30 -5 -71
-8 -90 -8 -31 1 -30 2 10 8 25 4 65 7 90 7 44 0 44 0 -10 -7z m105 -15 c-66
-13 -152 -19 -130 -9 17 7 127 22 165 22 22 0 8 -5 -35 -13z m-1325 -10 c0 -2
-6 -5 -13 -8 -8 -3 -14 1 -14 8 0 7 6 11 14 8 7 -3 13 -6 13 -8z m70 9 c0 -8
-19 -13 -24 -6 -3 5 1 9 9 9 8 0 15 -2 15 -3z m965 -4 c-76 -14 -149 -20 -139
-10 8 8 69 15 149 17 23 1 21 -1 -10 -7z m-1855 -4 c0 -2 -9 -6 -20 -9 -11 -3
-20 -1 -20 4 0 5 9 9 20 9 11 0 20 -2 20 -4z m433 -28 l6 -20 -20 20 c-23 25
-24 33 -5 26 8 -3 16 -15 19 -26z m1554 21 c-23 -13 -38 -16 -133 -24 -43 -4
-106 -11 -139 -16 -66 -10 -111 -12 -104 -4 3 2 16 7 30 9 13 2 24 5 24 6 0 1
20 3 45 5 92 7 255 27 259 31 2 2 11 4 20 4 13 -1 13 -2 -2 -11z m-1484 -6
c-7 -2 -21 -2 -30 0 -10 3 -4 5 12 5 17 0 24 -2 18 -5z m47 -3 c8 -5 11 -10 5
-10 -5 0 -17 5 -25 10 -8 5 -10 10 -5 10 6 0 17 -5 25 -10z m1696 1 c-3 -4
-34 -12 -68 -16 -35 -5 -65 -9 -68 -10 -3 0 -27 -4 -55 -9 -27 -4 -60 -10 -72
-13 -27 -6 -31 12 -5 22 9 3 44 8 77 11 33 3 75 8 93 12 53 11 104 13 98 3z
m-1649 -7 c-3 -3 -12 -4 -19 -1 -8 3 -5 6 6 6 11 1 17 -2 13 -5z m83 -4 c0 -5
-7 -7 -15 -4 -8 4 -15 8 -15 10 0 2 7 4 15 4 8 0 15 -4 15 -10z m40 -8 c0 -5
-7 -9 -15 -9 -8 0 -12 4 -9 9 3 4 9 8 15 8 5 0 9 -4 9 -8z m-61 -6 c-12 -10
-60 -16 -54 -6 3 5 18 10 32 10 15 0 24 -2 22 -4z m-126 -13 c-7 -2 -19 -2
-25 0 -7 3 -2 5 12 5 14 0 19 -2 13 -5z m1043 -4 c-10 -6 -52 -12 -92 -13 -40
-1 -76 -5 -80 -9 -11 -11 -74 -8 -74 3 0 6 17 11 38 11 20 1 51 4 67 8 17 4
59 8 95 9 52 2 61 0 46 -9z m374 2 c0 -13 -90 -30 -124 -24 -20 4 -27 2 -22
-6 5 -8 -9 -11 -48 -11 -38 0 -56 -4 -56 -12 0 -9 -3 -8 -10 2 -8 13 -11 12
-25 -5 -15 -20 -15 -20 -8 0 5 16 4 18 -8 9 -16 -13 -49 -15 -49 -2 0 4 7 9
15 9 8 1 23 2 33 3 9 1 22 4 27 6 6 3 31 5 57 5 25 0 44 3 41 8 -2 4 11 8 29
9 83 3 121 7 126 12 8 9 22 7 22 -3z m-1500 -16 c0 -8 -7 -15 -15 -15 -13 0
-14 3 -3 15 16 18 18 18 18 0z m544 -6 c-6 -11 -24 -2 -24 11 0 5 7 7 15 4 8
-4 12 -10 9 -15z m-911 -6 c-7 -2 -19 -2 -25 0 -7 3 -2 5 12 5 14 0 19 -2 13
-5z m2041 -8 c11 -5 21 -3 26 4 5 9 9 8 14 -5 4 -10 4 -15 0 -12 -4 4 -15 3
-25 -3 -12 -6 -19 -6 -19 0 0 5 -11 4 -25 -2 -14 -7 -25 -15 -25 -19 0 -5 -4
-8 -8 -8 -13 0 -7 41 8 50 14 8 25 8 54 -5z m-1399 -5 c3 -5 -1 -10 -10 -10
-9 0 -13 5 -10 10 3 6 8 10 10 10 2 0 7 -4 10 -10z m1308 -40 c-4 -5 -24 -10
-43 -12 -19 -2 -38 -7 -41 -11 -5 -7 -20 -11 -87 -21 -8 -1 -17 -8 -22 -15 -5
-9 -10 -10 -14 -2 -5 7 -13 8 -25 1 -23 -12 -93 -1 -84 13 3 6 1 7 -6 3 -15
-9 -5 -26 16 -26 31 0 2 -14 -31 -15 -27 -2 -33 1 -28 14 5 13 3 14 -10 4 -8
-7 -18 -10 -22 -6 -4 4 -4 0 0 -10 3 -10 1 -17 -5 -17 -6 0 -11 7 -11 16 0 8
-5 12 -10 9 -6 -4 -8 -10 -5 -15 3 -5 -4 -14 -15 -20 -19 -10 -25 -4 -21 23 1
9 -13 9 -22 0 -4 -3 -2 -12 4 -20 6 -7 10 -13 8 -14 -2 0 -11 -2 -19 -4 -70
-16 -80 -17 -80 -5 0 7 7 10 16 6 9 -3 12 -2 9 5 -4 5 -4 18 0 27 7 14 9 13
15 -8 l8 -25 1 27 c1 20 5 25 20 21 10 -3 22 0 25 6 10 16 26 14 26 -3 0 -8 4
-17 9 -20 5 -4 8 6 6 20 -2 22 1 25 21 20 13 -4 24 -3 24 2 0 5 6 9 13 10 40
3 93 17 99 26 5 6 8 2 8 -11 0 -12 4 -24 9 -27 5 -4 7 3 4 14 -3 13 0 20 8 20
8 1 31 3 53 6 26 4 42 2 48 -8 6 -9 7 -5 3 11 -5 17 -4 22 6 19 8 -3 26 1 42
9 15 7 27 12 27 9 0 -2 17 2 38 9 35 12 37 12 40 -7 2 -11 0 -24 -5 -28z
m-2493 30 c0 -5 -5 -10 -11 -10 -5 0 -7 5 -4 10 3 6 8 10 11 10 2 0 4 -4 4
-10z m882 -20 c1 -14 6 -27 9 -30 3 -3 0 -15 -6 -28 -11 -19 -12 -15 -13 34 0
57 4 67 10 24z m28 20 c0 -5 -4 -10 -10 -10 -5 0 -10 5 -10 10 0 6 5 10 10 10
6 0 10 -4 10 -10z m1110 -9 c0 -9 -45 -31 -63 -31 -7 0 -4 7 6 14 14 11 15 15
5 20 -7 3 -3 4 10 2 12 -2 22 0 22 6 0 5 5 6 10 3 6 -3 10 -10 10 -14z m30 4
c0 -8 -4 -15 -10 -15 -5 0 -10 7 -10 15 0 8 5 15 10 15 6 0 10 -7 10 -15z
m-1023 -1 c-3 -3 -12 -4 -19 -1 -8 3 -5 6 6 6 11 1 17 -2 13 -5z m-347 -30 c0
-14 -4 -23 -9 -20 -5 3 -7 15 -4 26 7 28 13 25 13 -6z m1270 19 c-1 -24 -50
-43 -50 -19 0 8 -2 8 -8 -1 -12 -19 -64 -21 -67 -2 -2 13 7 15 46 15 27 -1 49
2 49 7 0 4 7 7 15 7 8 0 15 -3 15 -7z m-146 -37 c-6 -15 -44 -16 -44 -1 0 6 5
16 12 23 14 14 39 -3 32 -22z m-844 -44 c-16 -6 -50 33 -50 56 0 10 11 3 32
-18 22 -24 28 -35 18 -38z m194 43 c4 -10 -1 -15 -15 -15 -17 0 -18 2 -7 15
16 18 15 18 22 0z m-104 -10 c0 -8 -4 -15 -10 -15 -5 0 -7 7 -4 15 4 8 8 15
10 15 2 0 4 -7 4 -15z m-690 -5 c0 -5 -8 -10 -17 -10 -15 0 -16 2 -3 10 19 12
20 12 20 0z m1415 -120 c8 0 17 5 20 10 8 13 35 13 35 0 0 -5 -12 -13 -27 -16
-16 -4 -31 -11 -34 -16 -3 -5 -16 -4 -30 1 -16 6 -18 10 -7 10 14 1 16 10 13
59 l-3 57 10 -52 c6 -33 15 -53 23 -53z m-1170 80 c3 -5 1 -10 -4 -10 -6 0
-11 5 -11 10 0 6 2 10 4 10 3 0 8 -4 11 -10z m455 6 c0 -2 -13 -6 -30 -8 -16
-3 -30 -1 -30 4 0 4 14 8 30 8 17 0 30 -2 30 -4z m-73 -12 c-3 -3 -12 -4 -19
-1 -8 3 -5 6 6 6 11 1 17 -2 13 -5z m928 -27 c-8 -13 -12 -27 -8 -31 4 -4 -1
-4 -11 0 -11 4 -21 2 -27 -7 -6 -9 -9 -10 -9 -2 0 6 5 15 11 19 8 4 7 9 -2 15
-7 4 -10 11 -6 15 4 4 13 -1 21 -11 12 -17 13 -17 19 4 3 11 10 21 16 21 7 0
6 -9 -4 -23z m-231 5 c3 -5 -8 -6 -25 -4 -16 2 -29 6 -29 8 0 8 49 4 54 -4z
m-641 -9 c-7 -2 -19 -2 -25 0 -7 3 -2 5 12 5 14 0 19 -2 13 -5z m751 -8 c-4
-8 -8 -15 -10 -15 -2 0 -4 7 -4 15 0 8 4 15 10 15 5 0 7 -7 4 -15z m56 3 c0
-11 -12 -10 -30 2 -12 7 -10 9 8 7 12 0 22 -5 22 -9z m-185 -13 c0 -5 -10 -11
-22 -13 -16 -2 -23 2 -23 13 0 11 7 15 23 13 12 -2 22 -7 22 -13z m1049 -3 c3
-5 -1 -9 -9 -9 -8 0 -12 4 -9 9 3 4 7 8 9 8 2 0 6 -4 9 -8z m-1819 -22 c3 -5
-1 -10 -9 -10 -9 0 -16 5 -16 10 0 6 4 10 9 10 6 0 13 -4 16 -10z m-995 -20
c0 -5 -2 -10 -4 -10 -3 0 -8 5 -11 10 -3 6 -1 10 4 10 6 0 11 -4 11 -10z
m1068 -16 c10 -18 5 -54 -8 -54 -16 0 -31 30 -25 50 8 24 21 26 33 4z m-68 -4
c0 -5 -7 -10 -16 -10 -8 0 -12 5 -9 10 3 6 10 10 16 10 5 0 9 -4 9 -10z m580
-16 c0 -10 -8 -14 -22 -12 -27 4 -35 25 -11 30 23 6 33 0 33 -18z m-1093 -16
c-3 -8 -6 -5 -6 6 -1 11 2 17 5 13 3 -3 4 -12 1 -19z m2058 -7 c-9 -16 -25 -3
-18 15 4 10 9 12 15 6 6 -6 7 -15 3 -21z m-1580 -31 c0 -22 -3 -40 -6 -40 -10
0 -22 58 -14 70 13 20 20 9 20 -30z m372 -7 c-3 -10 -5 -4 -5 12 0 17 2 24 5
18 2 -7 2 -21 0 -30z m1263 33 c0 -2 -7 -7 -16 -10 -8 -3 -12 -2 -9 4 6 10 25
14 25 6z m-1294 -18 c4 -7 3 -8 -4 -4 -7 4 -12 2 -12 -4 0 -6 -5 -8 -11 -4 -8
4 -7 9 2 15 18 11 17 11 25 -3z m775 -6 c-7 -2 -18 1 -23 6 -8 8 -4 9 13 5 13
-4 18 -8 10 -11z m-1624 -14 c-3 -8 -6 -5 -6 6 -1 11 2 17 5 13 3 -3 4 -12 1
-19z m2033 2 c0 -5 -2 -10 -4 -10 -3 0 -8 5 -11 10 -3 6 -1 10 4 10 6 0 11 -4
11 -10z m-76 -22 c-3 -5 -9 -6 -14 -3 -5 3 -10 -3 -12 -12 -3 -16 -5 -15 -9 3
-5 16 -1 20 17 20 12 0 20 -4 18 -8z m-988 -173 c-1 -109 -5 -175 -11 -175
-35 1 -39 18 -37 142 2 68 -1 137 -6 153 -12 41 -5 55 27 55 l28 0 -1 -175z
m624 171 c0 -3 -4 -8 -10 -11 -5 -3 -10 -1 -10 4 0 6 5 11 10 11 6 0 10 -2 10
-4z m30 -7 c0 -5 5 -7 10 -4 6 3 10 -1 10 -9 0 -18 17 -20 40 -6 12 7 10 11
-10 19 -24 9 -24 10 -2 10 12 1 22 -3 22 -9 0 -5 8 -6 18 -3 9 4 4 -5 -12 -20
-16 -15 -36 -25 -43 -23 -7 3 -13 0 -14 -7 0 -7 -4 -3 -9 8 -8 19 -9 19 -9 -2
-1 -15 -7 -23 -18 -22 -11 0 -13 3 -5 6 6 2 11 14 11 26 -1 17 -2 18 -6 5 -2
-10 -9 -18 -14 -18 -5 0 -9 -7 -9 -15 0 -8 -4 -15 -10 -15 -5 0 -7 7 -4 15 4
8 1 15 -4 15 -6 0 -14 -9 -17 -20 -3 -11 -14 -20 -23 -20 -15 1 -14 3 2 15 11
8 14 15 8 15 -17 0 -15 25 3 40 11 9 15 9 15 1 0 -7 5 -9 12 -5 7 4 8 3 4 -4
-4 -7 -1 -12 8 -12 9 0 15 3 14 8 0 4 2 15 6 25 9 19 26 23 26 6z m388 -2 c-7
-8 -19 -14 -26 -14 -11 0 -10 4 4 14 10 7 22 13 26 13 5 0 3 -6 -4 -13z m-168
-22 c0 -9 -6 -12 -15 -9 -8 4 -12 10 -9 15 8 14 24 10 24 -6z m-1006 -148 c-4
-6 -4 -9 1 -5 11 10 57 -59 61 -89 3 -34 -3 -28 -26 22 -11 25 -25 45 -30 45
-10 0 -34 48 -64 128 -25 67 -19 63 25 -16 22 -40 37 -78 33 -85z m961 134
c-3 -6 -11 -11 -16 -11 -5 0 -4 6 3 14 14 16 24 13 13 -3z m-48 -13 c-3 -8 -6
-5 -6 6 -1 11 2 17 5 13 3 -3 4 -12 1 -19z m-350 6 c-3 -3 -12 -4 -19 -1 -8 3
-5 6 6 6 11 1 17 -2 13 -5z m93 -16 c0 -11 -12 -10 -30 2 -12 7 -10 9 8 7 12
0 22 -5 22 -9z m25 2 c3 -5 1 -10 -4 -10 -6 0 -11 5 -11 10 0 6 2 10 4 10 3 0
8 -4 11 -10z m205 0 c-8 -5 -19 -10 -25 -10 -5 0 -3 5 5 10 8 5 20 10 25 10 6
0 3 -5 -5 -10z m-1404 -54 c-6 -32 -38 -58 -53 -43 -2 3 5 8 16 12 15 4 21 15
21 34 0 27 9 45 18 36 2 -2 1 -20 -2 -39z m458 -5 c-6 -6 -11 1 -18 29 l-7 25
15 -25 c8 -14 12 -27 10 -29z m561 39 c3 -5 1 -10 -4 -10 -6 0 -11 5 -11 10 0
6 2 10 4 10 3 0 8 -4 11 -10z m403 -4 c-2 -1 -12 -8 -22 -16 -18 -14 -18 -14
-6 7 8 12 18 19 23 16 4 -3 7 -6 5 -7z m-342 -8 c4 -7 3 -10 -1 -5 -5 4 -17 0
-27 -9 -14 -13 -15 -20 -7 -31 7 -7 9 -17 5 -21 -4 -4 -15 2 -23 13 -12 16
-14 16 -10 3 3 -10 2 -20 -3 -23 -6 -4 -10 0 -10 7 0 7 -3 24 -7 38 -6 22 -4
23 9 13 12 -11 19 -9 38 7 27 24 27 24 36 8z m64 -17 c3 -2 -3 -1 -12 2 -12 4
-18 1 -18 -8 0 -7 -4 -16 -8 -19 -5 -3 -7 5 -6 17 1 12 3 26 3 31 1 7 18 -2
41 -23z m-1173 -3 c-3 -8 -6 -5 -6 6 -1 11 2 17 5 13 3 -3 4 -12 1 -19z m461
-3 c-3 -3 -9 2 -12 12 -6 14 -5 15 5 6 7 -7 10 -15 7 -18z m742 15 c0 -5 -5
-10 -11 -10 -5 0 -7 5 -4 10 3 6 8 10 11 10 2 0 4 -4 4 -10z m-232 -25 c-3 -3
-9 2 -12 12 -6 14 -5 15 5 6 7 -7 10 -15 7 -18z m137 -2 c-2 -10 -4 -20 -4
-22 -1 -2 -8 3 -17 10 -14 12 -14 14 3 20 10 4 19 8 20 8 1 1 0 -7 -2 -16z
m160 -11 c-12 -12 -35 -10 -35 3 0 8 7 11 20 8 12 -3 18 -8 15 -11z m686 -9
c13 -16 12 -17 -3 -4 -17 13 -22 21 -14 21 2 0 10 -8 17 -17z m-765 -38 c-17
-36 -31 -49 -19 -18 5 13 3 15 -12 9 -11 -4 -16 -4 -12 0 4 4 1 14 -6 23 -10
14 -10 14 5 3 14 -12 19 -11 34 7 25 29 30 18 10 -24z m-1159 -27 c-2 -13 -4
-5 -4 17 -1 22 1 32 4 23 2 -10 2 -28 0 -40z m2063 23 c0 -13 -29 -8 -34 5 -3
7 2 10 15 7 10 -3 19 -9 19 -12z m-2805 -21 c3 -5 1 -10 -4 -10 -6 0 -11 5
-11 10 0 6 2 10 4 10 3 0 8 -4 11 -10z m1757 -3 c3 4 3 2 2 -4 -2 -7 1 -13 6
-13 6 0 10 -10 10 -22 -1 -22 -1 -22 -18 5 -9 15 -20 27 -24 27 -5 0 -8 5 -8
11 0 8 4 8 14 0 8 -7 16 -8 18 -4z m208 3 c-8 -5 -19 -10 -25 -10 -5 0 -3 5 5
10 8 5 20 10 25 10 6 0 3 -5 -5 -10z m-1030 -15 c-14 -8 -29 -14 -35 -14 -5 0
1 6 15 14 14 8 30 14 35 14 6 0 -1 -6 -15 -14z m50 1 c0 -2 -7 -7 -16 -10 -8
-3 -12 -2 -9 4 6 10 25 14 25 6z m857 -16 c-2 -11 -6 -22 -9 -26 -4 -3 -5 2
-3 13 2 10 4 21 4 26 1 4 3 7 6 7 3 0 4 -9 2 -20z m970 13 c-4 -3 -3 -11 2
-17 5 -6 5 -20 0 -31 -4 -11 -8 -15 -9 -10 -8 55 -7 65 2 65 6 0 8 -3 5 -7z
m-1882 -23 c-3 -5 -12 -10 -18 -10 -7 0 -6 4 3 10 19 12 23 12 15 0z m1800
-13 c-8 -13 -12 -27 -8 -31 4 -4 -1 -4 -12 0 -11 5 -14 9 -7 12 7 2 12 10 12
17 0 11 9 19 28 24 1 1 -4 -9 -13 -22z m52 17 c-3 -3 -12 -4 -19 -1 -8 3 -5 6
6 6 11 1 17 -2 13 -5z m-1904 -19 c-3 -9 -8 -14 -10 -11 -3 3 -2 9 2 15 9 16
15 13 8 -4z m375 -11 c7 -14 8 -23 2 -19 -15 9 -32 45 -22 45 5 0 14 -12 20
-26z m1442 -34 c0 -3 -11 -7 -26 -8 -15 -1 -23 2 -19 8 4 6 11 7 17 4 8 -5 9
1 5 17 -6 23 -5 23 8 5 8 -11 15 -22 15 -26z m-1475 -10 c3 -5 1 -10 -4 -10
-6 0 -11 5 -11 10 0 6 2 10 4 10 3 0 8 -4 11 -10z m1499 -5 c-4 -8 -11 -15
-16 -15 -6 0 -5 6 2 15 7 8 14 15 16 15 2 0 1 -7 -2 -15z m-1979 -22 c-11 -8
-19 -19 -17 -24 1 -6 -2 -7 -9 -4 -7 5 -3 15 12 31 12 13 25 21 28 18 3 -3 -3
-12 -14 -21z m490 -5 c5 4 5 1 1 -6 -6 -10 -11 -10 -22 -1 -8 6 -14 14 -14 16
0 3 6 0 13 -6 8 -6 18 -7 22 -3z m-48 -30 c-7 -4 -16 -8 -22 -8 -5 0 -3 5 5
10 8 5 11 10 7 10 -5 0 -5 5 -1 11 4 8 9 7 15 -2 5 -8 3 -17 -4 -21z m1360 26
c-3 -3 -12 -4 -19 -1 -8 3 -5 6 6 6 11 1 17 -2 13 -5z m213 -25 c0 -6 -4 -7
-10 -4 -5 3 -10 11 -10 16 0 6 5 7 10 4 6 -3 10 -11 10 -16z"/>
<path d="M1378 963 c7 -3 16 -2 19 1 4 3 -2 6 -13 5 -11 0 -14 -3 -6 -6z"/>
<path d="M718 1063 c6 -2 18 -2 25 0 6 3 1 5 -13 5 -14 0 -19 -2 -12 -5z"/>
<path d="M713 1034 c-3 -7 8 -29 24 -48 28 -36 43 -45 43 -26 0 6 9 6 23 1 31
-12 50 1 45 30 -3 21 -8 24 -35 21 -35 -3 -41 6 -20 27 10 10 3 12 -32 10 -24
-2 -45 -9 -48 -15z m43 -23 c-15 -14 -18 -14 -26 -1 -7 11 -4 17 8 21 26 10
36 -1 18 -20z"/>
<path d="M810 1046 c0 -2 7 -7 16 -10 8 -3 12 -2 9 4 -6 10 -25 14 -25 6z"/>
<path d="M938 918 c2 -15 8 -28 12 -28 5 0 8 13 8 28 -1 16 -6 29 -12 29 -7 0
-10 -12 -8 -29z"/>
<path d="M890 870 c0 -5 7 -10 15 -10 8 0 15 5 15 10 0 6 -7 10 -15 10 -8 0
-15 -4 -15 -10z"/>
<path d="M971 871 c-7 -5 -12 -13 -10 -18 2 -6 13 -2 23 8 20 19 12 26 -13 10z"/>
<path d="M930 845 c0 -8 2 -15 4 -15 2 0 6 7 10 15 3 8 1 15 -4 15 -6 0 -10
-7 -10 -15z"/>
<path d="M931 804 c0 -11 3 -14 6 -6 3 7 2 16 -1 19 -3 4 -6 -2 -5 -13z"/>
<path d="M900 785 c0 -8 5 -15 10 -15 6 0 10 7 10 15 0 8 -4 15 -10 15 -5 0
-10 -7 -10 -15z"/>
<path d="M933 730 c0 -25 2 -35 4 -22 2 12 2 32 0 45 -2 12 -4 2 -4 -23z"/>
<path d="M1003 664 c1 -23 5 -30 15 -27 8 4 10 8 4 12 -5 3 -12 15 -15 26 -3
12 -5 7 -4 -11z"/>
<path d="M925 534 c0 -31 4 -54 11 -54 6 0 9 17 7 41 -5 64 -18 74 -18 13z"/>
<path d="M2770 770 c0 -5 5 -10 11 -10 5 0 7 5 4 10 -3 6 -8 10 -11 10 -2 0
-4 -4 -4 -10z"/>
<path d="M2690 740 c0 -6 7 -10 15 -10 8 0 15 2 15 4 0 2 -7 6 -15 10 -8 3
-15 1 -15 -4z"/>
<path d="M2596 722 c-3 -4 4 -9 15 -9 23 -2 25 3 4 10 -8 4 -16 3 -19 -1z"/>
<path d="M2370 660 c0 -5 5 -10 11 -10 5 0 7 5 4 10 -3 6 -8 10 -11 10 -2 0
-4 -4 -4 -10z"/>
<path d="M2125 380 c3 -5 8 -10 11 -10 2 0 4 5 4 10 0 6 -5 10 -11 10 -5 0 -7
-4 -4 -10z"/>
<path d="M1130 1565 c-18 -21 -5 -45 25 -45 27 0 35 26 13 48 -16 16 -23 15
-38 -3z"/>
<path d="M1088 1553 c7 -3 16 -2 19 1 4 3 -2 6 -13 5 -11 0 -14 -3 -6 -6z"/>
<path d="M972 1240 c0 -14 2 -19 5 -12 2 6 2 18 0 25 -3 6 -5 1 -5 -13z"/>
<path d="M2600 1139 c0 -5 -4 -7 -10 -4 -5 3 -10 -3 -10 -14 0 -12 6 -21 13
-22 6 -1 1 -5 -13 -10 -24 -8 -24 -9 3 -5 18 2 31 -2 34 -11 8 -22 31 16 25
41 -7 30 -42 50 -42 25z"/>
<path d="M1808 983 c6 -2 18 -2 25 0 6 3 1 5 -13 5 -14 0 -19 -2 -12 -5z"/>
<path d="M1797 958 c-6 -4 45 -8 113 -10 69 -2 129 0 135 5 5 4 -31 7 -80 8
-50 0 -105 1 -123 2 -19 1 -39 -1 -45 -5z"/>
<path d="M2276 958 c-11 -6 -40 -8 -72 -4 -32 4 -54 2 -54 -3 0 -6 68 -10 169
-10 93 -1 175 -3 183 -6 24 -9 498 -12 498 -4 0 5 -64 9 -142 10 -79 1 -152 2
-163 3 -11 1 -108 3 -215 4 -130 2 -190 6 -180 12 21 13 -1 12 -24 -2z"/>
<path d="M2060 952 c0 -4 14 -9 30 -10 17 -1 30 2 30 8 0 5 -13 10 -30 10 -16
0 -30 -4 -30 -8z"/>
<path d="M1990 913 c0 -10 4 -14 8 -8 4 6 11 13 16 18 5 4 2 7 -7 7 -10 0 -17
-8 -17 -17z"/>
<path d="M2140 920 c-19 -4 -29 -8 -22 -9 7 0 11 -5 8 -10 -3 -5 3 -11 14 -14
22 -6 28 8 8 16 -7 3 4 6 25 6 20 1 37 6 37 11 0 11 -17 11 -70 0z"/>
<path d="M2275 920 c3 -5 16 -10 28 -9 21 0 21 1 2 9 -28 12 -37 12 -30 0z"/>
<path d="M2070 904 c0 -12 -7 -15 -30 -12 -17 3 -33 1 -36 -4 -3 -4 0 -8 6 -8
6 0 9 -4 6 -8 -3 -5 1 -9 9 -9 8 0 12 4 9 9 -3 5 10 7 30 5 32 -4 35 -2 34 19
-3 27 -28 33 -28 8z"/>
<path d="M1863 903 c9 -2 23 -2 30 0 6 3 -1 5 -18 5 -16 0 -22 -2 -12 -5z"/>
<path d="M2380 898 c0 -11 12 -10 30 2 12 7 10 9 -8 7 -12 0 -22 -5 -22 -9z"/>
<path d="M2178 893 c6 -2 18 -2 25 0 6 3 1 5 -13 5 -14 0 -19 -2 -12 -5z"/>
<path d="M2273 883 c9 -2 23 -2 30 0 6 3 -1 5 -18 5 -16 0 -22 -2 -12 -5z"/>
<path d="M1767 846 c-9 -10 -15 -22 -11 -27 7 -12 37 18 32 32 -3 8 -10 5 -21
-5z"/>
<path d="M1488 780 c-3 -16 -1 -30 4 -30 4 0 8 14 8 30 0 17 -2 30 -4 30 -2 0
-6 -13 -8 -30z"/>
<path d="M1635 750 c-3 -5 -1 -10 4 -10 6 0 11 5 11 10 0 6 -2 10 -4 10 -3 0
-8 -4 -11 -10z"/>
<path d="M1460 710 c0 -5 5 -10 10 -10 6 0 10 5 10 10 0 6 -4 10 -10 10 -5 0
-10 -4 -10 -10z"/>
<path d="M1656 655 c4 -8 10 -15 15 -15 4 0 6 7 3 15 -4 8 -10 15 -15 15 -4 0
-6 -7 -3 -15z"/>
<path d="M2406 449 c3 -5 12 -9 21 -9 19 0 9 13 -12 16 -8 1 -13 -2 -9 -7z"/>
<path d="M938 370 c5 -36 7 -35 16 3 4 19 3 27 -7 27 -9 0 -12 -9 -9 -30z"/>
<path d="M951 304 c0 -11 3 -14 6 -6 3 7 2 16 -1 19 -3 4 -6 -2 -5 -13z"/>
<path d="M991 234 c0 -11 3 -14 6 -6 3 7 2 16 -1 19 -3 4 -6 -2 -5 -13z"/>
<path d="M982 185 c0 -16 2 -22 5 -12 2 9 2 23 0 30 -3 6 -5 -1 -5 -18z"/>
<path d="M988 133 c6 -2 12 -12 11 -21 0 -11 -2 -12 -6 -4 -2 6 -9 12 -14 12
-6 0 -7 -4 -4 -10 3 -6 -1 -7 -9 -4 -11 4 -16 0 -16 -11 0 -9 5 -13 10 -10 14
9 13 -8 -2 -23 -7 -7 -8 -12 -2 -12 6 0 15 5 22 12 9 9 12 8 12 -4 0 -9 -5
-18 -12 -20 -7 -3 -9 -11 -3 -24 9 -21 7 -24 30 44 12 35 25 26 25 -18 l0 -40
50 0 c43 0 50 3 50 19 0 11 -10 27 -22 35 -12 9 -18 16 -13 16 20 -1 45 -28
45 -48 0 -20 5 -21 55 -20 50 2 54 4 49 23 -8 26 -23 53 -24 41 0 -5 -7 -3
-15 4 -10 8 -15 9 -15 2 0 -7 -11 -7 -32 2 -18 8 -56 19 -85 26 -29 6 -57 18
-64 26 -6 8 -17 14 -23 13 -7 0 -6 -2 2 -6z m239 -115 c-3 -8 -6 -5 -6 6 -1
11 2 17 5 13 3 -3 4 -12 1 -19z"/>
</g>
</svg>
