<?xml version="1.0" standalone="no"?>
<!DOCTYPE svg PUBLIC "-//W3C//DTD SVG 20010904//EN"
 "http://www.w3.org/TR/2001/REC-SVG-20010904/DTD/svg10.dtd">
<svg version="1.0" xmlns="http://www.w3.org/2000/svg"
 width="300.000000pt" height="168.000000pt" viewBox="0 0 300.000000 168.000000"
 preserveAspectRatio="xMidYMid meet">

<g transform="translate(0.000000,168.000000) scale(0.100000,-0.100000)"
fill="#000000" stroke="none">
<path d="M0 840 l0 -840 119 0 c69 0 122 4 126 10 3 5 2 10 -4 10 -13 0 -6 53
8 58 6 2 11 10 11 18 0 9 -5 12 -10 9 -6 -3 -10 -3 -11 2 0 4 -2 20 -4 34 -4
29 13 62 22 42 7 -19 72 -16 79 2 5 12 10 13 19 5 10 -8 16 -7 24 7 6 10 11
13 11 7 0 -16 30 -13 30 3 0 7 -4 13 -10 13 -5 0 -10 5 -10 10 0 18 29 11 40
-10 12 -22 32 -28 24 -6 -3 9 4 16 21 20 37 9 65 -1 58 -21 -4 -10 -2 -14 5
-9 6 3 13 2 17 -4 3 -5 2 -10 -4 -10 -6 0 -8 -6 -5 -14 5 -13 41 -14 63 -2 3
2 14 -6 24 -16 15 -16 15 -19 2 -24 -21 -8 -19 -25 8 -54 12 -14 19 -21 15
-16 -12 15 -9 28 3 20 6 -3 15 0 20 7 7 11 9 10 9 -3 0 -10 4 -18 9 -18 5 0 7
-10 3 -22 -3 -13 -1 -19 5 -15 7 5 9 0 6 -13 -3 -11 -1 -20 5 -20 5 0 12 11
14 25 3 14 1 25 -3 25 -5 0 -9 5 -9 10 0 6 5 10 10 10 16 0 29 -43 18 -57 -6
-8 -4 -10 11 -6 12 3 17 11 14 19 -3 8 1 14 8 14 8 1 2 8 -13 16 -29 15 -34
29 -18 54 8 12 10 11 10 -7 0 -17 6 -23 23 -23 18 0 19 -2 7 -11 -12 -8 -9
-10 13 -6 15 2 27 0 27 -5 0 -5 14 -1 30 9 30 18 39 33 19 33 -6 0 -9 10 -7
23 4 20 1 23 -24 19 -32 -5 -111 26 -102 40 3 4 10 6 15 3 5 -4 12 1 15 9 3 9
12 16 20 16 18 0 18 -9 -3 -32 -15 -17 -15 -18 14 -18 17 0 36 6 42 13 8 11 4
18 -22 32 -28 15 -38 16 -58 6 l-24 -12 25 20 c14 11 29 21 33 21 5 0 5 4 2
10 -14 22 48 0 68 -25 5 -6 7 -3 4 7 -7 22 3 30 20 16 11 -8 12 -7 7 6 -3 9
-17 16 -30 16 -13 0 -24 5 -24 10 0 6 7 10 15 10 8 0 15 4 15 9 0 4 19 7 42 5
23 -1 48 2 55 8 10 8 19 4 38 -16 13 -14 19 -26 13 -26 -19 0 1 -14 23 -15 13
-1 18 3 15 11 -3 7 -1 16 5 19 5 4 8 1 7 -7 -2 -8 8 -14 27 -15 57 -3 61 -4
42 -12 -17 -6 -16 -8 7 -19 17 -7 26 -8 26 -1 0 5 6 9 13 8 6 -1 25 3 40 9 16
7 33 9 39 6 5 -3 8 2 7 12 -2 11 0 25 4 32 5 8 2 15 -10 19 -10 4 -21 11 -25
17 -5 8 -8 7 -8 -1 0 -7 -11 -12 -25 -11 -17 2 -24 7 -20 16 4 10 0 13 -13 10
-11 -3 -30 0 -43 8 -39 21 4 30 47 9 19 -9 47 -19 62 -21 15 -3 33 -7 40 -9 7
-3 22 0 34 6 19 10 19 11 1 24 -17 14 -17 14 5 15 13 0 20 4 17 10 -4 6 -3 10
2 9 4 -1 19 -1 33 0 24 2 24 2 6 16 -16 12 -17 15 -4 15 9 0 18 7 22 15 4 11
14 14 33 10 19 -4 22 -3 10 3 -10 4 -17 10 -15 13 2 3 -3 13 -11 23 -12 14
-12 16 2 11 17 -7 35 14 20 24 -5 3 -15 15 -21 26 -11 20 -12 20 -18 -3 -3
-12 -11 -22 -16 -22 -6 0 -8 7 -4 15 3 8 2 15 -3 15 -5 0 -16 12 -26 26 -13
20 -14 29 -5 38 8 8 10 7 5 -6 -5 -13 -2 -18 9 -18 9 0 19 -7 22 -15 4 -8 10
-15 16 -15 5 0 6 4 3 10 -3 6 1 7 9 4 9 -3 16 -12 16 -20 0 -10 8 -12 29 -8
23 5 30 2 34 -12 4 -16 5 -15 6 4 1 14 -5 22 -14 22 -13 0 -13 3 -3 13 7 8 22
12 33 10 11 -2 14 0 7 3 -18 8 -62 50 -62 58 0 4 8 2 18 -3 14 -8 19 -6 19 5
0 7 -9 14 -21 14 -20 0 -20 0 0 16 10 8 14 13 8 10 -7 -3 -17 8 -24 25 -10 22
-15 27 -21 17 -6 -8 -9 -9 -9 -2 0 7 12 20 27 29 23 16 25 16 20 1 -4 -9 -2
-16 4 -16 6 0 7 -5 4 -10 -4 -6 -11 -7 -17 -4 -7 4 -8 2 -4 -4 12 -20 48 9 43
35 -6 35 8 51 33 36 11 -7 23 -13 27 -13 5 0 0 5 -10 11 -28 17 -9 29 36 24
33 -4 37 -3 20 4 -13 6 -23 17 -23 25 0 8 -6 17 -12 19 -8 4 -7 6 3 6 22 1 43
27 29 36 -5 3 -10 1 -10 -6 0 -16 -13 -3 -16 16 -1 8 2 15 7 15 6 0 7 5 4 10
-3 6 4 10 17 11 23 1 23 1 -2 9 -14 4 -19 8 -12 9 7 1 11 5 8 10 -3 4 4 17 15
27 16 14 22 15 28 5 6 -10 10 -9 14 4 4 9 3 14 -2 11 -5 -3 -22 7 -38 22 -31
30 -61 46 -80 43 -17 -2 -26 18 -14 33 8 10 8 16 -3 25 -12 10 -14 9 -12 -6 4
-27 -15 -51 -36 -45 -24 6 -23 -6 4 -30 24 -21 62 -33 76 -24 5 3 15 0 21 -8
9 -11 7 -15 -11 -20 l-23 -7 23 -9 c15 -7 21 -14 15 -22 -4 -7 -8 -15 -9 -18
-4 -23 -18 -38 -30 -33 -8 3 -14 9 -14 14 0 4 8 6 18 2 16 -6 16 -5 0 14 -10
11 -18 24 -18 30 0 5 -21 21 -47 34 -27 13 -50 27 -51 32 -9 18 -21 -7 -16
-30 6 -24 5 -25 -27 -18 -25 4 -30 3 -19 -4 8 -6 41 -13 73 -17 32 -4 55 -9
52 -12 -2 -3 0 -12 7 -19 16 -20 -5 -32 -47 -26 -21 3 -43 -2 -58 -12 -16 -10
-26 -12 -29 -6 -1 6 -18 15 -37 21 -18 5 -31 7 -27 3 3 -3 1 -12 -5 -19 -9
-11 -7 -15 5 -20 11 -4 22 1 31 12 8 11 15 14 15 7 0 -6 18 -20 41 -30 38 -16
39 -18 18 -24 -22 -5 -21 -6 9 -11 25 -3 32 -1 28 9 -4 9 -1 11 6 7 8 -5 9 -2
5 10 -4 10 -7 20 -7 22 0 2 -7 4 -15 4 -8 0 -15 5 -15 10 0 16 20 12 53 -12
18 -13 33 -22 35 -20 1 1 8 2 15 2 7 -1 5 -6 -5 -14 -10 -7 -14 -17 -10 -22 4
-4 -1 -2 -10 5 -12 9 -18 10 -18 2 0 -6 -6 -10 -12 -8 -7 1 -12 -3 -11 -10 2
-7 -4 -10 -12 -7 -24 10 -17 -12 8 -25 l22 -12 -23 5 c-17 3 -23 -1 -28 -19
-3 -14 -16 -26 -30 -29 -29 -8 -32 -32 -5 -32 11 0 17 4 15 8 -3 4 0 8 5 8 6
0 11 -9 11 -20 0 -15 -7 -20 -24 -20 -14 0 -28 4 -31 10 -3 5 -11 10 -16 10
-6 0 -8 -4 -5 -9 6 -9 -78 4 -97 16 -7 4 -7 0 1 -10 8 -9 17 -15 21 -14 15 4
60 -59 51 -72 -6 -10 -9 -8 -15 8 -8 26 -21 27 -35 1 -7 -12 -16 -17 -27 -13
-14 5 -14 8 -2 11 7 3 19 9 26 14 18 14 -12 42 -35 33 -15 -6 -15 -8 3 -15 17
-6 15 -9 -18 -20 -20 -8 -37 -18 -37 -22 0 -4 -13 -8 -30 -8 -16 0 -30 -5 -30
-11 0 -6 9 -8 22 -4 18 5 20 4 8 -4 -13 -9 -12 -12 5 -25 16 -12 17 -18 7 -24
-11 -7 -11 -11 0 -19 21 -16 48 -23 48 -13 0 6 -8 10 -17 11 -14 0 -13 3 5 12
18 8 29 8 44 -2 11 -7 17 -8 13 -2 -9 16 20 42 39 35 19 -7 21 -25 4 -42 -9
-9 -9 -12 0 -12 6 0 9 -7 5 -16 -4 -11 -8 -12 -13 -4 -5 8 -9 7 -13 -4 -8 -19
-48 -21 -66 -3 -11 10 -13 8 -8 -10 6 -25 -14 -37 -33 -20 -9 9 -11 9 -6 0 3
-6 -20 3 -52 20 -68 36 -73 40 -47 35 15 -2 20 3 21 24 3 30 -16 37 -46 18 -8
-5 -17 -5 -20 -1 -3 5 -16 12 -30 16 -23 7 -23 7 -7 -9 22 -22 22 -36 0 -36
-13 0 -14 -3 -5 -12 8 -8 15 -8 27 2 8 7 15 9 15 4 0 -5 5 -2 11 6 9 13 10 12
5 -2 -3 -10 2 -21 11 -26 11 -7 1 -9 -33 -9 -79 0 -95 -3 -90 -12 3 -5 -6 -21
-19 -35 -14 -15 -25 -31 -25 -36 0 -5 -9 -14 -19 -20 -15 -7 -24 -6 -36 6 -22
23 -14 39 21 39 23 0 30 5 32 23 2 13 8 20 14 16 7 -5 8 -2 4 5 -5 7 -15 10
-23 7 -9 -4 -13 -1 -10 6 2 7 9 12 15 11 5 -1 16 4 22 12 20 24 -5 19 -50 -10
-22 -14 -44 -25 -50 -25 -6 0 -8 -5 -5 -10 4 -6 1 -17 -5 -25 -6 -8 -10 -18
-7 -22 2 -4 -4 -17 -14 -27 -16 -17 -19 -17 -19 -3 0 9 5 19 10 22 6 3 10 11
10 16 0 5 -18 -5 -40 -22 -44 -36 -50 -49 -20 -49 11 0 20 5 20 11 0 8 5 8 15
-1 8 -7 26 -10 40 -8 19 4 25 1 23 -10 -4 -20 -30 -50 -40 -45 -4 2 -9 -1 -13
-7 -9 -14 18 -13 33 2 9 9 14 9 22 0 6 -6 7 -10 4 -7 -14 10 -44 -17 -44 -40
0 -14 -3 -25 -6 -25 -12 0 -30 26 -27 37 2 6 -1 14 -6 17 -6 4 -13 -4 -17 -18
-5 -22 -9 -23 -25 -13 -15 10 -23 7 -49 -18 -16 -16 -30 -24 -30 -17 0 6 4 14
10 17 5 3 10 17 10 31 0 15 -4 23 -10 19 -6 -4 -8 -10 -5 -15 3 -5 0 -12 -6
-16 -8 -4 -9 -3 -5 4 4 7 2 12 -3 12 -6 0 -11 -4 -11 -8 0 -4 -18 -8 -40 -7
-22 0 -40 5 -40 11 0 19 12 23 31 11 24 -15 37 -1 17 20 -14 14 -21 14 -48 3
-22 -9 -29 -17 -25 -30 7 -21 -28 -33 -56 -19 -11 5 -29 14 -40 20 -16 8 -24
8 -29 -1 -9 -14 -70 -4 -70 11 0 6 -5 7 -10 4 -6 -4 -8 -9 -6 -13 2 -4 -2 -16
-10 -27 -17 -22 -32 -12 -36 25 -2 19 1 24 15 22 9 -2 17 3 17 11 0 8 -8 14
-17 13 -15 -1 -18 7 -18 48 0 31 5 51 13 54 7 2 10 -2 6 -12 -8 -20 10 -21 29
-2 10 10 18 11 25 4 6 -6 12 -6 17 3 6 8 4 10 -5 4 -8 -5 -11 -3 -8 6 3 8 24
21 48 30 27 10 38 18 29 22 -10 4 -9 6 4 6 10 1 27 -4 38 -9 18 -10 18 -12
-10 -39 -16 -16 -27 -33 -23 -37 4 -5 -1 -2 -10 5 -11 8 -18 9 -18 3 0 -6 4
-14 10 -17 6 -3 10 -14 10 -24 0 -14 -6 -17 -27 -14 l-28 4 25 -21 24 -22 9
25 c8 25 44 47 77 47 11 0 20 7 20 16 0 8 -5 12 -10 9 -6 -3 -10 -1 -10 5 0
12 28 6 71 -16 14 -7 31 -9 39 -4 7 4 29 7 49 5 43 -3 52 1 44 21 -5 13 -8 13
-30 -1 -14 -9 -27 -14 -30 -11 -3 2 4 10 16 17 19 12 19 15 4 31 -15 17 -15
18 0 18 10 0 17 5 17 11 0 8 4 8 13 1 17 -14 51 -18 57 -7 3 6 -5 11 -17 13
-18 3 -23 10 -23 33 0 28 1 29 16 15 20 -20 44 -21 44 -1 0 8 4 15 10 15 5 0
20 11 34 25 l25 25 -26 7 c-27 6 -27 6 -4 14 13 5 19 14 15 20 -4 8 -8 8 -13
1 -4 -6 -21 -9 -39 -7 -18 2 -32 0 -32 -6 0 -5 -9 -4 -20 3 -19 12 -19 13 3
22 22 8 21 9 -6 17 -16 4 -36 16 -44 26 -8 10 -11 12 -7 4 5 -11 3 -13 -10 -8
-10 4 -20 7 -22 7 -2 0 -4 8 -4 18 0 14 -2 15 -10 2 -13 -21 -12 -51 2 -47 6
1 14 -13 18 -30 8 -37 3 -40 -26 -18 -17 13 -17 14 -1 15 9 0 17 8 17 17 0 12
-3 14 -11 6 -14 -14 -46 -5 -53 14 -4 10 -2 13 8 10 8 -3 17 1 20 9 7 17 -23
19 -59 2 -32 -14 -78 3 -69 27 5 11 0 15 -17 15 -19 0 -21 -2 -9 -10 8 -5 11
-10 6 -10 -6 0 -5 -5 2 -12 8 -8 8 -15 2 -24 -7 -8 -6 -13 5 -18 9 -3 18 0 21
7 3 9 16 12 35 9 30 -4 51 -22 26 -22 -10 0 -13 -7 -10 -20 6 -22 19 -27 25
-9 2 5 15 -2 28 -16 l25 -27 -25 2 c-40 3 -45 1 -25 -14 22 -16 14 -49 -10
-40 -8 3 -15 10 -15 16 0 5 4 6 10 3 6 -3 7 1 4 9 -8 21 -20 20 -28 0 -6 -15
-9 -15 -29 5 -27 25 -50 27 -67 6 -14 -17 -41 -20 -56 -5 -8 8 -19 7 -39 0
-19 -7 -31 -7 -40 0 -15 13 -26 60 -14 60 5 0 9 -8 9 -17 0 -11 3 -13 9 -8 14
14 1 65 -16 65 -11 0 -11 4 -3 20 7 14 7 20 0 20 -5 0 -10 13 -10 30 0 32 33
70 61 70 10 0 20 4 24 10 3 5 12 7 20 3 8 -3 15 0 15 6 0 6 -5 11 -11 11 -6 0
-16 6 -24 13 -11 11 -10 15 6 25 25 16 34 15 20 -2 -16 -19 4 -32 24 -16 8 6
20 8 27 4 10 -6 10 -4 -1 9 -12 15 -10 18 14 27 16 6 33 7 43 1 24 -13 72 -8
72 7 0 6 -6 12 -12 12 -7 0 -5 5 5 11 9 5 21 7 26 4 6 -3 14 3 20 12 13 22 14
12 2 -20 -5 -13 -5 -30 -1 -37 11 -18 -6 -50 -25 -50 -8 0 -15 5 -15 10 0 6
-5 10 -11 10 -6 0 -9 -9 -6 -20 4 -17 2 -20 -15 -14 -14 4 -18 2 -14 -5 4 -6
15 -11 24 -11 15 0 15 -2 2 -11 -13 -9 -13 -10 0 -6 8 2 16 9 16 15 3 23 4 23
20 7 20 -20 9 -35 -56 -78 -25 -16 -36 -26 -25 -23 11 4 24 8 28 9 13 3 87 76
87 85 0 6 9 12 21 15 12 3 18 10 14 16 -3 7 0 8 9 5 11 -4 16 0 16 10 0 9 7
16 16 16 14 0 14 2 0 15 -17 17 -30 20 -21 5 3 -5 -1 -10 -10 -10 -10 0 -13
-5 -9 -12 4 -6 3 -8 -4 -4 -7 4 -8 17 -2 35 6 23 5 31 -7 35 -8 3 -13 12 -10
19 8 22 -13 48 -34 42 -13 -4 -19 -2 -19 9 0 9 -3 16 -7 16 -5 1 -21 12 -37
25 -19 15 -24 23 -13 21 9 -1 19 -5 23 -8 3 -4 13 -4 22 0 14 5 15 3 5 -9 -11
-13 -7 -18 23 -33 41 -19 45 -17 48 17 1 21 4 23 19 16 9 -5 17 -15 17 -22 0
-9 3 -9 9 1 6 10 10 10 21 -3 19 -23 24 -21 73 21 7 5 20 13 30 17 11 4 15 12
11 18 -4 7 -3 9 3 6 6 -4 14 1 17 10 4 9 1 20 -6 25 -9 5 -10 8 -1 8 6 0 15
-4 18 -10 3 -5 14 -10 23 -10 14 0 15 2 2 10 -8 5 -11 12 -7 16 4 4 12 3 18
-3 6 -6 23 -8 42 -3 56 13 68 21 62 40 -5 14 -2 17 14 13 13 -3 29 4 45 18 39
38 69 59 84 59 9 0 12 6 8 17 -6 15 -4 15 14 -2 11 -10 20 -16 21 -14 0 2 2
12 4 22 2 13 -1 17 -11 13 -9 -3 -12 -1 -9 5 11 17 -15 41 -31 28 -7 -6 -18
-8 -23 -4 -7 3 -8 0 -5 -9 3 -9 10 -16 15 -16 5 0 9 -4 9 -10 0 -5 -8 -7 -17
-4 -16 5 -16 4 -3 -6 11 -8 12 -13 3 -17 -19 -7 -28 -4 -28 10 0 6 -4 12 -10
12 -5 0 -17 4 -25 10 -13 7 -13 6 -2 -7 17 -21 24 -58 10 -58 -5 0 -8 6 -5 14
5 12 -11 26 -29 26 -11 0 -2 -24 13 -36 10 -7 15 -16 11 -20 -4 -4 -13 -2 -20
4 -18 14 -104 19 -101 5 1 -6 -6 -9 -17 -6 -13 3 -20 0 -20 -8 0 -10 -3 -10
-12 -1 -17 17 -31 15 -24 -3 3 -8 1 -15 -5 -15 -6 0 -8 -9 -4 -20 8 -24 5 -24
-41 -5 -33 13 -35 13 -32 -3 2 -9 12 -17 22 -17 11 0 21 -5 23 -11 2 -7 -8 -9
-27 -6 -21 3 -34 12 -40 28 -5 13 -14 24 -20 24 -6 0 -8 -4 -5 -10 3 -5 -3
-10 -15 -10 -12 0 -18 5 -15 10 3 6 1 10 -4 10 -6 0 -11 -5 -11 -11 0 -5 -4
-8 -9 -5 -5 3 -15 -2 -22 -11 -12 -14 -11 -15 8 -9 16 5 21 3 19 -11 -1 -12 7
-18 22 -19 18 -1 23 3 19 17 -3 11 -1 19 4 19 5 0 9 -4 9 -9 0 -5 12 -14 28
-19 24 -9 24 -11 5 -11 -12 -1 -24 -5 -27 -10 -3 -4 -17 -6 -31 -3 -17 3 -25
0 -25 -9 -1 -10 -5 -9 -14 4 -12 15 -14 16 -20 2 -3 -8 -11 -14 -18 -13 -7 2
-12 -4 -10 -14 1 -9 -3 -20 -9 -24 -7 -4 -9 -3 -6 3 3 5 -10 17 -29 28 -19 10
-34 24 -34 31 0 6 -7 14 -15 18 -9 3 -15 0 -15 -9 0 -8 5 -15 12 -15 9 0 9 -3
0 -12 -10 -10 -15 -10 -21 1 -5 8 -21 15 -36 17 -26 3 -26 2 -10 -16 15 -17
15 -19 -4 -25 -12 -3 -31 -3 -43 0 -17 5 -19 4 -9 -3 22 -15 20 -61 -2 -68
-10 -3 -21 -3 -24 0 -4 3 1 6 10 6 21 0 21 4 1 45 -11 25 -21 32 -40 31 -13 0
-24 -4 -24 -8 0 -16 -28 -7 -32 10 -8 31 6 48 42 50 62 5 67 6 67 18 0 11 -62
10 -96 -1 -10 -4 -12 1 -6 22 10 41 24 54 54 47 25 -5 25 -5 7 10 -18 15 -22
14 -41 -4 -28 -26 -30 -25 -32 10 -1 17 2 30 6 30 5 0 5 17 1 38 -4 20 -7 115
-6 210 l2 172 -118 0 -118 0 0 -840z m935 370 c-3 -5 -12 -7 -20 -3 -21 7 -19
13 6 13 11 0 18 -4 14 -10z m-70 -30 c3 -6 -1 -7 -9 -4 -18 7 -21 14 -7 14 6
0 13 -4 16 -10z m-35 -10 c0 -5 -5 -10 -11 -10 -5 0 -7 5 -4 10 3 6 8 10 11
10 2 0 4 -4 4 -10z m-110 -89 c0 -5 -10 -7 -22 -3 -14 3 -19 2 -14 -6 4 -7 1
-12 -7 -12 -8 0 -17 6 -20 13 -4 10 5 14 29 15 19 1 34 -3 34 -7z m-421 -33
c4 7 12 7 20 3 7 -5 10 -14 7 -20 -9 -14 -46 4 -45 22 0 8 2 7 6 -2 4 -9 8
-10 12 -3z m-49 -13 c0 -8 -2 -15 -4 -15 -2 0 -6 7 -10 15 -3 8 -1 15 4 15 6
0 10 -7 10 -15z m207 -18 c11 -12 35 -8 27 5 -4 6 -3 8 4 4 6 -3 9 -17 6 -29
-3 -21 -1 -23 29 -20 22 3 28 1 19 -5 -22 -15 -57 -9 -56 11 1 10 -5 17 -17
17 -10 0 -19 -6 -19 -12 0 -9 -3 -9 -9 1 -8 12 -14 12 -38 -4 l-28 -18 18 21
c11 11 16 25 13 31 -7 11 40 9 51 -2z m-127 -54 c5 -6 18 -16 27 -22 31 -17 8
-22 -30 -6 -20 8 -41 15 -46 15 -10 0 -9 -19 2 -37 5 -7 5 -13 0 -13 -11 1
-39 40 -48 70 -7 24 -7 24 12 8 21 -20 53 -24 53 -8 0 6 -4 10 -9 10 -6 0 -9
9 -8 21 1 20 2 20 19 -3 10 -12 22 -28 28 -35z m115 -3 c-4 -6 8 -10 27 -11
18 -1 25 -3 16 -6 -10 -2 -18 -9 -18 -15 0 -7 -4 -7 -12 0 -13 10 -18 12 -39
12 -5 0 -8 4 -5 9 4 5 0 12 -6 14 -7 3 0 6 15 6 16 1 26 -3 22 -9z m45 -45 c0
-8 -7 -15 -16 -15 -14 0 -14 3 -4 15 7 8 14 15 16 15 2 0 4 -7 4 -15z m850 11
c0 -3 -4 -8 -10 -11 -5 -3 -10 -1 -10 4 0 6 5 11 10 11 6 0 10 -2 10 -4z
m-985 -24 c-3 -3 -11 0 -18 7 -9 10 -8 11 6 5 10 -3 15 -9 12 -12z m-60 -49
c16 -13 17 -15 3 -10 -11 4 -18 1 -19 -6 0 -9 -2 -9 -5 0 -3 7 -13 9 -22 6
-15 -6 -15 -5 -3 10 16 21 21 21 46 0z m1170 -73 c3 -5 2 -10 -4 -10 -5 0 -13
5 -16 10 -3 6 -2 10 4 10 5 0 13 -4 16 -10z m-90 -100 c4 -7 12 -7 25 0 29 15
36 -19 8 -44 -14 -14 -17 -15 -9 -3 11 14 11 17 -1 17 -8 0 -23 9 -33 20 -10
11 -13 20 -7 20 6 0 14 -5 17 -10z m-715 -19 c0 -5 -7 -12 -16 -15 -14 -5 -15
-4 -4 9 14 17 20 19 20 6z m70 -54 c0 -5 -9 -7 -19 -4 -15 4 -18 0 -15 -18 3
-19 0 -22 -21 -17 -28 5 -33 20 -10 28 8 4 13 10 10 14 -3 5 8 8 25 8 16 -1
30 -5 30 -11z m0 -21 c0 -11 -19 -15 -25 -6 -3 5 1 10 9 10 9 0 16 -2 16 -4z
m624 -12 c17 -7 22 -54 6 -54 -5 0 -16 14 -25 30 -15 30 -11 35 19 24z m-929
-14 c-3 -5 -12 -10 -18 -10 -7 0 -6 4 3 10 19 12 23 12 15 0z m-79 -13 c4 -4
2 -7 -5 -7 -6 0 -11 -8 -9 -17 2 -10 -3 -17 -9 -15 -7 1 -13 -2 -13 -7 0 -5
-7 -17 -16 -25 -12 -12 -20 -13 -35 -6 -24 13 -25 30 -1 30 14 0 15 -2 2 -10
-12 -7 -10 -9 8 -7 14 1 18 5 12 11 -14 14 -13 43 2 52 7 5 8 2 3 -7 -5 -9 -2
-8 10 2 17 17 38 19 51 6z m319 3 c3 -6 -1 -7 -9 -4 -18 7 -21 14 -7 14 6 0
13 -4 16 -10z m-15 -21 c0 -11 -27 -12 -34 0 -3 4 -3 11 0 14 8 8 34 -3 34
-14z m-217 -12 c4 3 7 1 7 -5 0 -21 -15 -19 -40 5 l-25 25 26 -16 c14 -9 29
-13 32 -9z m143 8 c-8 -8 -18 -15 -22 -15 -3 0 -1 7 6 15 7 8 17 15 22 15 5 0
3 -7 -6 -15z m-96 -11 c0 -8 -4 -12 -10 -9 -5 3 -10 10 -10 16 0 5 5 9 10 9 6
0 10 -7 10 -16z m-124 -39 c14 -13 12 -15 -13 -14 -15 0 -22 3 -15 6 6 2 10 9
6 14 -8 14 6 10 22 -6z m770 -22 c-8 -8 -36 5 -36 17 0 7 6 7 21 0 11 -7 18
-14 15 -17z m-166 -3 c-9 -18 -8 -20 17 -21 l28 -1 -25 -7 c-14 -5 -29 -5 -33
0 -11 9 1 49 14 49 6 0 6 -8 -1 -20z m116 1 c-4 -5 0 -12 6 -14 7 -3 3 -6 -9
-6 -14 -1 -23 5 -23 14 0 8 7 15 16 15 8 0 13 -4 10 -9z m-788 -17 c-7 -8 -23
-11 -35 -8 -31 8 -22 19 17 20 26 1 29 -1 18 -12z m942 7 c0 -5 9 -13 21 -16
11 -4 18 -9 15 -12 -3 -4 -1 -12 5 -20 9 -10 6 -13 -15 -13 -14 0 -28 0 -31 0
-3 0 -4 3 -2 8 1 4 5 6 10 5 11 -4 9 5 -9 32 -10 15 -12 25 -5 25 6 0 11 -4
11 -9z m-40 -16 c11 -13 9 -15 -13 -15 -13 0 -30 7 -37 15 -11 13 -9 15 13 15
13 0 30 -7 37 -15z m-615 -15 c3 -6 -1 -7 -9 -4 -18 7 -21 14 -7 14 6 0 13 -4
16 -10z m355 0 c0 -5 -2 -10 -4 -10 -3 0 -8 5 -11 10 -3 6 -1 10 4 10 6 0 11
-4 11 -10z m175 -30 c3 -5 -1 -10 -10 -10 -9 0 -13 5 -10 10 3 6 8 10 10 10 2
0 7 -4 10 -10z m-161 -22 c-5 -7 -2 -9 9 -5 15 5 27 -10 27 -36 0 -8 -3 -8
-11 0 -9 9 -16 9 -30 0 -14 -9 -21 -9 -31 1 -9 9 -8 12 6 12 12 0 16 5 13 14
-5 12 2 20 21 25 2 1 0 -4 -4 -11z m183 -33 c0 -8 -6 -15 -12 -15 -6 0 -12 7
-12 15 0 8 6 15 12 15 6 0 12 -7 12 -15z m-262 -15 c3 -5 -1 -10 -10 -10 -9 0
-13 5 -10 10 3 6 8 10 10 10 2 0 7 -4 10 -10z m275 -20 c-20 -13 -43 -13 -35
0 3 6 16 10 28 10 18 0 19 -2 7 -10z m106 -10 c0 -15 -5 -19 -21 -14 -29 9
-31 14 -15 24 24 15 36 12 36 -10z m-961 -70 c4 -6 -2 -9 -14 -7 -29 4 -39 17
-13 17 11 0 24 -5 27 -10z m45 -15 c0 -8 -4 -15 -9 -15 -13 0 -22 16 -14 24
11 11 23 6 23 -9z m390 -40 c0 -24 -4 -29 -23 -30 -26 -2 -33 16 -12 32 24 17
35 17 35 -2z m130 -45 c0 -5 -4 -10 -10 -10 -5 0 -10 5 -10 10 0 6 5 10 10 10
6 0 10 -4 10 -10z"/>
<path d="M2580 1671 c0 -5 10 -7 22 -3 14 3 19 2 14 -6 -4 -7 -2 -12 3 -12 6
0 11 7 11 15 0 9 -9 15 -25 15 -14 0 -25 -4 -25 -9z"/>
<path d="M2690 1669 c0 -5 4 -8 9 -5 5 3 14 -1 21 -9 14 -17 35 -21 25 -5 -3
6 -2 10 3 10 6 0 13 -26 16 -57 7 -77 7 -881 0 -1106 -6 -173 -7 -177 -28
-176 -17 1 -17 2 -3 6 21 5 23 33 2 33 -8 0 -15 7 -15 15 0 8 6 14 13 12 7 -1
13 11 15 29 3 28 0 32 -22 32 -15 0 -26 -4 -26 -8 0 -5 -13 -11 -28 -15 -37
-8 -92 -58 -92 -84 0 -12 -4 -21 -10 -21 -5 0 -10 -11 -10 -24 0 -13 -9 -35
-20 -49 -25 -32 -25 -37 3 -37 12 0 17 -4 12 -8 -6 -4 -18 -41 -27 -82 -9 -41
-19 -85 -23 -97 l-7 -23 251 0 251 0 0 840 0 840 -155 0 c-102 0 -155 -4 -155
-11z m40 -1449 c0 -30 -3 -38 -14 -34 -8 3 -17 1 -20 -4 -6 -11 -66 43 -66 58
0 5 19 11 43 13 23 2 45 4 50 5 4 1 7 -16 7 -38z m-143 -12 c-3 -8 -6 -5 -6 6
-1 11 2 17 5 13 3 -3 4 -12 1 -19z m170 -40 c-3 -7 -5 -2 -5 12 0 14 2 19 5
13 2 -7 2 -19 0 -25z m-37 -14 c0 -8 -5 -12 -10 -9 -6 4 -8 11 -5 16 9 14 15
11 15 -7z m39 -113 c0 -20 -3 -30 -6 -23 -2 6 -11 12 -19 12 -8 0 -14 5 -14
11 0 5 -4 7 -10 4 -5 -3 -10 3 -10 14 0 25 30 44 47 29 7 -6 13 -27 12 -47z"/>
<path d="M1738 1613 c7 -3 16 -2 19 1 4 3 -2 6 -13 5 -11 0 -14 -3 -6 -6z"/>
<path d="M1686 1589 c2 -4 -4 -10 -13 -12 -14 -4 -14 -5 -2 -6 8 0 23 5 33 12
16 12 16 13 -3 13 -11 0 -18 -3 -15 -7z"/>
<path d="M1600 1547 c0 -10 8 -17 18 -17 9 0 13 4 7 8 -5 4 -13 11 -17 16 -5
5 -8 2 -8 -7z"/>
<path d="M1733 1519 c-2 -23 3 -25 10 -4 4 8 3 16 -1 19 -4 3 -9 -4 -9 -15z"/>
<path d="M1547 1509 c3 -11 0 -19 -6 -19 -7 0 -9 5 -5 13 6 9 3 8 -8 -1 -13
-10 -22 -11 -37 -2 -17 8 -20 8 -15 -5 7 -17 -22 -50 -31 -36 -3 5 -1 12 5 16
13 8 13 25 0 25 -5 0 -10 -7 -10 -16 0 -9 -5 -12 -12 -8 -7 4 -8 3 -4 -4 14
-23 -5 -34 -26 -15 -21 18 -21 18 -9 -4 10 -19 9 -23 -3 -23 -8 0 -18 5 -21
10 -4 6 -11 8 -16 4 -6 -4 -6 -11 1 -19 12 -15 7 -19 -32 -29 -15 -3 -30 -2
-33 4 -6 10 6 14 35 11 13 -2 13 0 1 8 -17 11 -55 -5 -46 -20 4 -5 1 -9 -5 -9
-6 0 -9 -4 -6 -8 2 -4 -4 -8 -14 -8 -10 0 -17 4 -14 7 2 4 0 10 -6 14 -5 3
-10 -1 -10 -9 0 -8 5 -18 10 -21 12 -8 13 -25 2 -25 -5 0 -13 10 -19 22 -6 15
-12 18 -17 10 -4 -7 -3 -12 3 -12 6 0 8 -7 5 -15 -4 -8 -10 -15 -16 -15 -5 0
-6 5 -2 12 4 7 3 8 -4 4 -7 -4 -12 -11 -12 -17 0 -11 45 -6 83 10 16 6 33 11
38 11 6 0 7 5 3 12 -5 8 -2 9 9 5 9 -3 19 -1 23 4 3 6 15 8 26 6 16 -4 17 -3
7 9 -6 8 -9 15 -5 15 10 2 25 6 34 9 4 1 11 2 15 1 5 -1 6 3 2 9 -3 5 0 10 7
10 8 0 31 9 53 20 22 11 45 20 52 20 7 0 27 13 45 29 l32 29 -26 0 c-20 0 -24
-5 -21 -19z"/>
<path d="M1984 1520 c-27 -11 -35 -23 -39 -58 -2 -15 -8 -63 -14 -107 -6 -44
-15 -123 -21 -175 -8 -78 -13 -97 -31 -111 -19 -14 -20 -17 -4 -23 15 -5 16
-17 11 -98 -4 -51 -10 -96 -15 -101 -12 -12 -53 2 -48 16 3 7 11 11 18 9 8 -2
11 0 6 4 -12 12 -49 16 -42 4 3 -5 0 -10 -7 -10 -9 0 -10 -3 -2 -8 6 -4 14
-16 18 -28 3 -12 18 -26 31 -32 27 -13 33 -49 15 -96 -11 -31 -35 -34 -37 -5
-3 32 -22 50 -43 39 -24 -13 -31 -47 -14 -64 11 -11 11 -16 1 -19 -6 -3 3 -6
21 -6 24 -1 32 -6 32 -18 0 -15 -2 -16 -10 -3 -8 13 -10 13 -10 -1 0 -9 9 -19
20 -22 16 -4 20 -14 20 -44 0 -22 -6 -48 -14 -59 -14 -18 -15 -18 -21 8 -4 15
-4 32 0 37 3 6 2 11 -4 11 -5 0 -13 -6 -18 -12 -23 -38 -5 -83 28 -73 24 8 25
-17 2 -41 -16 -16 -16 -16 4 -10 17 6 22 2 27 -21 5 -23 12 -28 38 -29 18 -1
34 -6 36 -13 2 -6 8 -9 13 -5 15 9 10 -16 -6 -32 -18 -19 -20 -55 -2 -51 6 1
11 -5 11 -15 -1 -9 7 -19 17 -21 11 -3 17 -2 14 3 -8 13 36 62 51 56 8 -3 14
-1 14 3 0 22 44 -5 66 -41 14 -21 34 -48 46 -60 21 -21 21 -22 2 -29 -10 -3
-22 -5 -26 -2 -4 2 -16 -1 -27 -6 -14 -8 -22 -7 -31 4 -10 13 -14 12 -29 -6
-9 -11 -25 -21 -35 -23 -23 -3 -29 -53 -8 -61 16 -6 32 2 32 16 0 6 -4 7 -10
4 -5 -3 -10 1 -10 9 0 18 31 21 46 6 12 -12 84 14 84 29 0 5 7 12 16 15 8 3
12 2 9 -4 -8 -13 43 -63 58 -57 7 2 23 -11 37 -29 14 -18 33 -36 43 -40 9 -3
15 -10 12 -15 -4 -5 29 -9 79 -9 49 0 86 4 86 10 0 5 -7 7 -15 4 -11 -5 -15 1
-15 19 0 14 -8 33 -17 43 -16 15 -17 15 -24 -2 -7 -17 -8 -17 -8 4 -1 25 -11
28 -30 9 -10 -10 -15 -8 -26 7 -12 16 -17 17 -30 6 -12 -10 -15 -10 -15 4 0 9
-5 15 -12 13 -7 -1 -16 16 -21 39 -8 36 -6 46 17 82 27 43 41 51 49 30 4 -8 6
-7 6 3 1 9 11 19 24 23 13 3 36 17 50 30 l27 25 0 -29 c0 -16 4 -32 10 -35 6
-4 9 27 9 82 0 48 5 112 11 142 5 29 10 70 10 90 0 20 10 56 21 81 11 25 15
39 8 33 -25 -25 -30 -12 -27 70 l3 82 33 1 c36 1 57 13 26 15 -10 1 -23 1 -28
0 -5 -1 -4 4 3 12 9 12 8 15 -5 13 -24 -2 -29 20 -6 26 30 8 51 -14 92 -97 11
-22 18 -32 15 -22 -2 10 2 29 11 42 12 18 12 24 2 28 -8 4 -5 8 10 12 26 9 29
31 6 56 -14 16 -18 16 -31 4 -21 -21 -36 -18 -30 5 5 19 -4 25 -27 21 -26 -5
-55 12 -63 36 -6 16 -7 58 -2 98 13 123 22 322 15 350 -4 17 -18 31 -39 39
-39 17 -441 30 -473 16z m354 -35 c8 -7 -10 -45 -19 -40 -5 4 -9 0 -9 -8 0
-16 44 -42 58 -33 5 3 24 3 41 0 27 -6 31 -11 31 -40 0 -46 -30 -48 -31 -1
l-1 32 -7 -30 c-7 -33 -21 -37 -32 -8 -7 17 -8 16 -8 -2 -1 -14 -8 -20 -23
-21 -54 -3 -88 -9 -88 -16 0 -16 -29 -8 -33 10 -4 13 -5 12 -6 -5 -1 -16 -6
-20 -21 -16 -11 3 -17 10 -13 17 4 6 -1 5 -10 -3 -14 -11 -17 -11 -17 0 0 8
-5 6 -14 -6 -13 -18 -13 -18 -24 1 -10 17 -11 17 -12 2 0 -15 -9 -18 -51 -18
-80 0 -90 10 -83 78 3 31 8 66 9 77 2 11 4 26 4 34 1 12 30 13 178 7 97 -4
179 -8 181 -11z m-318 -215 c-12 -8 -8 -10 15 -9 36 1 158 -11 164 -17 2 -2
-48 -4 -112 -4 -95 0 -117 3 -117 14 0 13 16 20 55 24 6 1 3 -3 -5 -8z m106
-72 c30 -14 47 -76 33 -117 -19 -55 -54 -35 -51 29 l2 35 -19 -22 c-21 -26
-35 -20 -18 8 14 23 2 37 -21 23 -10 -6 -18 -27 -20 -47 -4 -42 -37 -71 -48
-42 -13 34 3 106 27 123 43 31 67 33 115 10z m225 -11 c37 -28 51 -96 28 -138
-10 -20 -12 -20 -29 -4 -14 12 -17 25 -13 46 3 17 0 35 -7 44 -14 17 -50 20
-50 4 0 -5 6 -7 13 -3 6 4 9 4 5 -1 -4 -4 -3 -14 3 -22 6 -7 8 -13 4 -13 -4 0
-14 8 -21 18 -11 13 -15 14 -22 4 -5 -7 -7 -23 -5 -35 3 -14 -3 -26 -17 -35
-18 -11 -21 -10 -30 13 -13 34 -13 38 6 84 9 22 23 42 32 44 34 9 87 6 103 -6z
m-261 -126 c0 -4 -11 -8 -25 -9 -15 -1 -25 3 -25 12 0 9 8 12 25 8 14 -2 25
-7 25 -11z m224 -9 c2 -4 -4 -8 -14 -8 -10 0 -16 4 -14 8 3 4 9 8 14 8 5 0 11
-4 14 -8z m-249 -86 c20 -30 16 -81 -5 -81 -10 0 -15 10 -15 30 0 23 -5 31
-21 33 -16 2 -24 -4 -32 -27 -14 -40 -32 -40 -32 1 0 64 72 94 105 44z m146
-7 c24 -24 24 -84 -1 -84 -10 0 -14 8 -12 23 2 20 -1 22 -20 17 -22 -6 -22 -5
-5 9 20 16 8 30 -17 20 -10 -4 -16 -18 -16 -35 0 -19 -5 -29 -15 -29 -24 0
-19 56 7 80 28 26 53 25 79 -1z m151 -6 c19 -17 25 -77 9 -88 -12 -7 -25 14
-26 40 0 15 -7 20 -25 20 -20 0 -26 -6 -28 -27 -5 -43 -32 -36 -32 8 0 58 60
86 102 47z m-37 -43 c3 -5 2 -10 -4 -10 -5 0 -13 5 -16 10 -3 6 -2 10 4 10 5
0 13 -4 16 -10z m-67 -108 c9 -3 10 -8 1 -18 -14 -17 -4 -47 13 -42 7 3 13 15
13 29 0 28 19 34 80 25 l42 -7 2 -52 c3 -77 -10 -182 -20 -166 -7 11 -9 10 -9
-3 0 -9 5 -20 10 -23 6 -3 10 -13 10 -22 0 -10 -7 -6 -22 13 -13 15 -22 37
-20 49 2 18 2 18 -8 2 -6 -9 -8 -23 -4 -30 6 -9 4 -9 -7 -1 -8 6 -22 8 -32 5
-18 -7 -18 -8 -1 -21 11 -9 15 -10 10 -3 -5 9 -2 11 10 6 16 -6 15 -7 -2 -20
-10 -7 -12 -13 -5 -13 7 0 9 -5 5 -12 -4 -7 -3 -8 4 -4 7 4 12 2 12 -3 0 -6
14 -11 30 -11 28 0 30 -2 30 -40 0 -44 -17 -60 -57 -52 -22 4 -25 8 -20 39 4
20 2 31 -4 28 -5 -4 -9 -1 -9 6 0 7 -11 3 -24 -10 -24 -22 -24 -22 -31 -2 -6
20 -6 20 -26 0 -12 -12 -27 -18 -39 -14 -12 4 -22 -1 -29 -12 -10 -17 -10 -17
-11 3 0 11 -6 32 -12 47 -10 20 -18 25 -33 21 -11 -4 -20 -7 -20 -8 -1 0 -6
-13 -12 -28 -11 -25 -8 -38 8 -38 5 0 6 7 3 15 -5 11 -1 14 15 12 11 -2 24 -7
28 -12 5 -4 2 -5 -4 -1 -8 4 -13 1 -13 -8 0 -11 -9 -16 -30 -16 -16 0 -30 4
-30 8 0 4 -16 6 -36 4 -26 -3 -35 -1 -30 7 4 7 0 11 -12 11 -28 0 -45 25 -38
54 4 17 19 29 51 42 47 17 51 26 36 68 -7 17 -19 26 -38 28 -37 4 -45 44 -11
57 13 5 26 7 29 5 4 -2 10 7 13 21 6 23 36 37 36 17 0 -15 56 -72 71 -72 17 0
18 55 1 72 -16 16 -15 33 3 48 8 7 12 17 9 22 -6 9 97 10 124 0z m101 -278
c-17 -21 -31 -17 -17 5 7 11 16 17 20 14 5 -2 4 -11 -3 -19z m-67 -96 c-7 -7
-12 -8 -12 -2 0 14 12 26 19 19 2 -3 -1 -11 -7 -17z m-292 -103 c0 -5 -5 -3
-10 5 -5 8 -10 20 -10 25 0 6 5 3 10 -5 5 -8 10 -19 10 -25z m30 11 c0 -3 -4
-8 -10 -11 -5 -3 -10 -1 -10 4 0 6 5 11 10 11 6 0 10 -2 10 -4z m220 -90 c0
-1 -5 -18 -12 -37 l-12 -34 -7 29 c-5 16 -6 33 -3 38 5 8 34 12 34 4z"/>
<path d="M2288 1463 c7 -3 16 -2 19 1 4 3 -2 6 -13 5 -11 0 -14 -3 -6 -6z"/>
<path d="M1991 1394 c0 -11 3 -14 6 -6 3 7 2 16 -1 19 -3 4 -6 -2 -5 -13z"/>
<path d="M1981 1344 c0 -11 3 -14 6 -6 3 7 2 16 -1 19 -3 4 -6 -2 -5 -13z"/>
<path d="M2020 1320 c0 -5 5 -10 10 -10 6 0 10 5 10 10 0 6 -4 10 -10 10 -5 0
-10 -4 -10 -10z"/>
<path d="M2366 717 c3 -10 9 -15 12 -12 3 3 0 11 -7 18 -10 9 -11 8 -5 -6z"/>
<path d="M2228 689 c-23 -24 -23 -29 2 -29 15 0 20 7 20 25 0 29 0 29 -22 4z"/>
<path d="M2368 635 c2 -19 6 -35 8 -35 2 0 4 16 4 35 0 19 -4 35 -8 35 -4 0
-6 -16 -4 -35z"/>
<path d="M2285 501 c-3 -5 -1 -12 5 -16 5 -3 10 1 10 9 0 18 -6 21 -15 7z"/>
<path d="M815 1510 c-3 -5 1 -10 10 -10 9 0 13 5 10 10 -3 6 -8 10 -10 10 -2
0 -7 -4 -10 -10z"/>
<path d="M740 1500 c-9 -6 -10 -10 -3 -10 6 0 15 5 18 10 8 12 4 12 -15 0z"/>
<path d="M1070 1498 c0 -4 11 -7 25 -6 28 3 24 11 -5 13 -11 1 -20 -2 -20 -7z"/>
<path d="M338 1493 c7 -3 16 -2 19 1 4 3 -2 6 -13 5 -11 0 -14 -3 -6 -6z"/>
<path d="M1010 1486 c0 -9 0 -18 0 -21 0 -3 3 -5 7 -5 10 -1 12 29 2 36 -5 3
-9 -2 -9 -10z"/>
<path d="M1664 1488 c-4 -7 -4 -10 1 -6 4 4 17 2 29 -4 19 -10 20 -10 7 5 -16
20 -27 21 -37 5z"/>
<path d="M1873 1488 c3 -9 1 -19 -6 -22 -7 -2 -4 -5 6 -5 20 -1 21 7 6 29 -9
13 -10 13 -6 -2z"/>
<path d="M1248 1483 c7 -3 16 -2 19 1 4 3 -2 6 -13 5 -11 0 -14 -3 -6 -6z"/>
<path d="M510 1464 c0 -18 26 -19 33 -1 3 8 -3 14 -14 14 -11 1 -19 -5 -19
-13z"/>
<path d="M580 1458 c0 -4 4 -8 9 -8 6 0 12 4 15 8 3 5 -1 9 -9 9 -8 0 -15 -4
-15 -9z"/>
<path d="M870 1459 c0 -5 9 -9 20 -9 11 0 20 2 20 4 0 2 -9 6 -20 9 -11 3 -20
1 -20 -4z"/>
<path d="M426 1443 c-6 -14 -5 -15 5 -6 7 7 10 15 7 18 -3 3 -9 -2 -12 -12z"/>
<path d="M360 1446 c0 -9 30 -14 35 -6 4 6 -3 10 -14 10 -12 0 -21 -2 -21 -4z"/>
<path d="M1770 1420 c0 -5 5 -10 11 -10 5 0 7 5 4 10 -3 6 -8 10 -11 10 -2 0
-4 -4 -4 -10z"/>
<path d="M246 1403 c-6 -14 -5 -15 5 -6 7 7 10 15 7 18 -3 3 -9 -2 -12 -12z"/>
<path d="M472 1404 c-7 -8 -18 -11 -24 -8 -7 4 -8 2 -4 -4 8 -14 46 2 46 18 0
13 -2 12 -18 -6z"/>
<path d="M515 1410 c4 -6 11 -8 16 -5 14 9 11 15 -7 15 -8 0 -12 -5 -9 -10z"/>
<path d="M335 1390 c-11 -4 -23 -6 -27 -3 -5 2 -8 -2 -8 -9 0 -10 11 -12 40
-10 22 2 40 8 40 14 0 5 -4 7 -9 4 -5 -4 -11 -2 -13 3 -1 4 -12 5 -23 1z"/>
<path d="M1150 1389 c0 -5 5 -7 10 -4 6 3 10 8 10 11 0 2 -4 4 -10 4 -5 0 -10
-5 -10 -11z"/>
<path d="M630 1380 c11 -7 11 -10 2 -10 -7 0 -10 -5 -6 -11 4 -7 -1 -7 -16 1
-21 11 -22 11 -17 -11 4 -13 7 -33 8 -44 0 -16 3 -14 13 9 9 20 15 25 19 15 4
-10 8 -11 14 -3 4 6 18 15 31 18 22 7 21 9 -15 27 -39 20 -58 25 -33 9z"/>
<path d="M735 1380 c3 -5 17 -10 30 -10 13 0 27 5 30 10 4 6 -8 10 -30 10 -22
0 -34 -4 -30 -10z"/>
<path d="M950 1383 c0 -5 11 -9 25 -9 14 -1 22 2 19 7 -6 11 -44 12 -44 2z"/>
<path d="M1557 1384 c-4 -4 -4 -10 -1 -15 6 -10 34 0 34 12 0 10 -24 12 -33 3z"/>
<path d="M546 1362 c-3 -4 4 -9 15 -9 23 -2 25 3 4 10 -8 4 -16 3 -19 -1z"/>
<path d="M1799 1350 l-24 -19 25 0 c14 0 19 3 12 6 -10 4 -9 8 5 19 10 7 15
14 12 14 -4 0 -17 -9 -30 -20z"/>
<path d="M1140 1350 c-8 -5 -10 -10 -5 -10 6 0 17 5 25 10 8 5 11 10 5 10 -5
0 -17 -5 -25 -10z"/>
<path d="M1470 1350 c0 -5 -8 -10 -18 -10 -10 0 -19 -6 -19 -14 0 -12 3 -12
22 0 22 14 55 10 55 -7 0 -4 -8 -13 -17 -18 -14 -8 -15 -11 -3 -11 8 -1 5 -5
-8 -11 -13 -5 -29 -6 -34 -2 -7 3 -8 1 -4 -5 4 -7 14 -12 22 -12 9 0 12 -5 8
-12 -4 -7 7 -1 26 12 18 13 28 26 22 28 -7 2 -12 8 -12 13 0 6 4 8 9 5 12 -8
41 4 41 16 0 6 -8 4 -17 -3 -9 -8 -14 -9 -10 -3 4 7 0 17 -8 24 -8 7 -15 9
-15 4 0 -4 -5 -3 -12 4 -15 15 -28 16 -28 2z"/>
<path d="M452 1337 c7 -7 22 -16 33 -21 15 -5 16 -9 6 -15 -9 -6 -1 -8 20 -6
49 4 49 4 49 15 0 12 -59 37 -93 39 -23 1 -26 -1 -15 -12z m64 -12 c13 -13 13
-15 1 -15 -8 0 -20 7 -27 15 -9 11 -10 15 -1 15 7 0 19 -7 27 -15z"/>
<path d="M759 1333 c-13 -16 -12 -17 4 -4 9 7 17 15 17 17 0 8 -8 3 -21 -13z"/>
<path d="M349 1333 c-1 -2 -2 -9 -3 -15 0 -7 -16 -15 -35 -18 -27 -4 -31 -7
-20 -16 20 -16 61 -25 52 -11 -4 7 0 8 13 3 22 -9 26 -10 77 -8 25 1 37 7 37
16 0 8 -8 14 -17 14 -10 -1 -29 2 -43 6 -19 6 -21 5 -10 -3 12 -8 6 -11 -24
-11 -33 0 -37 2 -26 15 7 8 17 12 23 8 5 -3 7 -1 3 5 -3 5 0 12 6 15 7 3 3 4
-9 4 -13 -1 -24 -3 -24 -4z"/>
<path d="M876 1327 c-14 -11 -13 -12 9 -12 25 0 33 9 16 19 -4 3 -16 0 -25 -7z"/>
<path d="M570 1316 c0 -8 5 -18 10 -21 6 -3 10 3 10 14 0 12 -4 21 -10 21 -5
0 -10 -6 -10 -14z"/>
<path d="M716 1321 c-3 -5 1 -11 9 -14 9 -4 12 -1 8 9 -6 16 -10 17 -17 5z"/>
<path d="M812 1314 c14 -14 21 -15 30 -6 8 8 9 12 1 12 -6 0 -20 3 -30 6 -17
7 -17 6 -1 -12z"/>
<path d="M1124 1321 c3 -5 15 -11 26 -14 17 -4 19 -3 9 9 -12 15 -44 20 -35 5z"/>
<path d="M1723 1323 c-7 -2 -13 -12 -13 -20 0 -11 7 -14 25 -11 17 4 25 1 25
-9 0 -8 -4 -11 -10 -8 -5 3 -10 1 -10 -5 0 -6 -4 -9 -8 -6 -13 8 -65 16 -58 9
4 -4 13 -8 20 -9 34 -5 53 -15 53 -29 0 -14 -11 -19 -30 -16 -5 1 -5 -3 -2 -9
4 -7 -2 -10 -17 -9 -12 1 -31 1 -41 1 -17 -2 -17 -3 -3 -18 19 -18 12 -36 -9
-28 -8 4 -12 11 -8 17 4 6 1 7 -7 2 -7 -4 -15 -3 -19 3 -4 7 -12 8 -21 2 -12
-7 -10 -11 10 -19 14 -5 22 -10 18 -10 -5 -1 1 -10 12 -21 12 -12 18 -25 15
-30 -4 -6 -2 -10 4 -10 6 0 8 -6 5 -14 -3 -8 0 -17 7 -22 8 -5 11 -2 6 8 -8
21 18 56 46 60 16 2 21 9 19 25 -2 12 2 24 8 28 5 3 10 15 10 25 0 10 12 28
28 40 15 12 27 25 27 28 0 4 4 13 8 20 14 21 -3 35 -18 15 -7 -10 -11 -22 -8
-27 4 -5 1 -6 -6 -2 -7 5 -10 10 -7 13 4 4 -30 44 -36 42 -2 0 -9 -3 -15 -6z"/>
<path d="M250 1299 c0 -5 5 -7 10 -4 6 3 10 8 10 11 0 2 -4 4 -10 4 -5 0 -10
-5 -10 -11z"/>
<path d="M789 1280 l-26 -5 33 -16 c18 -9 31 -12 28 -8 -3 5 2 9 11 9 9 0 13
-4 10 -10 -3 -5 1 -10 9 -10 24 0 19 18 -6 26 -13 4 -25 10 -28 13 -3 4 -17 4
-31 1z"/>
<path d="M1294 1269 c-3 -6 0 -15 7 -20 29 -18 39 -7 15 17 -11 10 -17 11 -22
3z"/>
<path d="M710 1264 c0 -5 10 -10 23 -10 12 -1 33 -5 47 -9 17 -5 22 -5 15 3
-13 14 -85 27 -85 16z"/>
<path d="M1250 1250 c-8 -5 -10 -10 -5 -10 6 0 17 5 25 10 8 5 11 10 5 10 -5
0 -17 -5 -25 -10z"/>
<path d="M434 1238 c-4 -5 -3 -12 0 -15 3 -4 6 -1 6 6 0 7 5 9 10 6 6 -4 8
-11 5 -16 -4 -5 0 -9 7 -9 7 0 23 -3 36 -6 13 -4 22 -2 22 5 0 6 -3 10 -7 9
-14 -4 -53 13 -49 21 3 4 -2 8 -10 8 -8 0 -17 -4 -20 -9z"/>
<path d="M500 1240 c0 -5 12 -10 26 -10 14 0 23 -4 20 -9 -11 -17 43 -19 56
-2 7 9 8 13 4 9 -5 -4 -14 -4 -20 1 -18 14 -86 23 -86 11z"/>
<path d="M1178 1233 c7 -3 16 -2 19 1 4 3 -2 6 -13 5 -11 0 -14 -3 -6 -6z"/>
<path d="M1352 1231 c-18 -3 -31 -10 -30 -16 2 -5 -7 -14 -19 -20 -30 -13 -29
-25 1 -25 14 0 28 -4 31 -10 11 -18 52 -11 58 9 4 15 0 19 -14 16 -26 -5 -24
19 4 38 24 17 20 18 -31 8z m-2 -41 c0 -5 -7 -10 -15 -10 -8 0 -15 5 -15 10 0
6 7 10 15 10 8 0 15 -4 15 -10z"/>
<path d="M1420 1220 c0 -5 5 -10 11 -10 5 0 7 5 4 10 -3 6 -8 10 -11 10 -2 0
-4 -4 -4 -10z"/>
<path d="M1630 1220 c0 -5 5 -10 10 -10 6 0 10 5 10 10 0 6 -4 10 -10 10 -5 0
-10 -4 -10 -10z"/>
<path d="M1179 1197 c-20 -22 -27 -49 -7 -29 9 9 16 8 31 -6 19 -16 20 -16 13
11 -5 22 -3 27 8 25 8 -2 14 1 13 7 -4 17 -39 12 -58 -8z"/>
<path d="M335 1189 c-17 -7 -16 -8 8 -8 15 -1 30 -8 33 -16 9 -22 56 -20 52 3
-2 11 -11 16 -26 14 -13 -2 -29 1 -35 6 -7 5 -21 6 -32 1z"/>
<path d="M446 1192 c-3 -3 -1 -11 5 -18 11 -13 39 -9 39 6 0 10 -37 20 -44 12z"/>
<path d="M1545 1190 c-13 -6 -15 -9 -5 -9 8 0 22 4 30 9 18 12 2 12 -25 0z"/>
<path d="M1060 1170 c13 -9 13 -10 0 -11 -10 0 -8 -3 5 -8 24 -10 36 -5 29 12
-2 7 -14 14 -27 14 -17 2 -19 0 -7 -7z"/>
<path d="M1239 1178 c-6 -21 -5 -38 2 -38 5 0 9 -5 9 -11 0 -5 -10 -3 -22 5
-32 22 -44 20 -44 -9 0 -19 4 -24 21 -21 11 2 14 1 8 -1 -15 -5 -17 -23 -3
-23 6 0 10 -7 10 -15 0 -8 7 -15 16 -15 8 0 12 -4 9 -10 -3 -5 -1 -10 4 -10 6
0 11 9 11 21 0 13 -4 18 -12 13 -6 -4 -8 -3 -5 2 3 5 20 11 37 12 32 2 79 29
80 46 0 4 -8 5 -17 2 -10 -4 -14 -4 -10 0 10 10 -63 45 -76 37 -6 -3 -7 -1 -3
5 4 7 2 12 -3 12 -6 0 -11 -1 -12 -2z"/>
<path d="M1565 1140 c-3 -5 -1 -10 4 -10 6 0 11 5 11 10 0 6 -2 10 -4 10 -3 0
-8 -4 -11 -10z"/>
<path d="M1140 1136 c0 -2 7 -6 15 -10 8 -3 15 -1 15 4 0 6 -7 10 -15 10 -8 0
-15 -2 -15 -4z"/>
<path d="M990 1120 c20 -13 43 -13 35 0 -3 6 -16 10 -28 10 -18 0 -19 -2 -7
-10z"/>
<path d="M519 1109 c-12 -8 -12 -10 1 -19 22 -14 40 -12 40 4 0 18 -23 27 -41
15z"/>
<path d="M570 1109 c0 -5 5 -7 10 -4 6 3 10 8 10 11 0 2 -4 4 -10 4 -5 0 -10
-5 -10 -11z"/>
<path d="M941 1101 c-9 -6 -5 -8 13 -8 15 0 29 3 32 8 7 11 -27 11 -45 0z"/>
<path d="M1045 1100 c-7 -11 -1 -13 30 -11 17 1 17 -1 -5 -13 -32 -19 -40 -20
-40 -1 0 8 -6 15 -14 15 -19 0 -33 -23 -18 -28 17 -5 4 -22 -17 -22 -9 0 -32
-11 -51 -25 -19 -14 -29 -25 -24 -25 6 0 15 5 22 12 8 8 12 8 12 1 0 -6 7 -14
16 -17 14 -5 15 -4 5 8 -10 12 -8 16 8 21 25 8 44 -2 35 -18 -5 -8 -3 -8 7 1
9 9 10 15 2 23 -17 17 7 40 30 28 9 -6 17 -6 17 -2 0 4 6 0 13 -9 18 -24 57
-6 52 24 -8 38 -63 65 -80 38z"/>
<path d="M910 1076 c0 -2 7 -7 16 -10 8 -3 12 -2 9 4 -6 10 -25 14 -25 6z"/>
<path d="M1136 1065 c-3 -8 -2 -15 3 -15 4 0 8 -7 8 -15 0 -10 -6 -14 -15 -10
-9 3 -12 0 -9 -9 5 -11 0 -13 -21 -6 -39 11 -45 13 -59 11 -19 -2 -16 -27 4
-47 17 -17 16 -17 -15 -11 -21 4 -31 3 -27 -3 3 -6 -3 -10 -14 -10 -26 0 -36
-16 -14 -24 9 -4 20 -1 24 6 6 9 12 8 25 -3 11 -9 15 -9 10 -1 -9 15 18 27 42
17 11 -5 13 -9 4 -12 -6 -3 -10 -8 -7 -13 3 -4 -2 -13 -10 -20 -9 -7 -15 -8
-15 -2 0 12 -38 23 -45 12 -3 -5 -18 -2 -33 5 -32 16 -43 18 -99 16 -35 -1
-41 -4 -36 -18 5 -13 2 -15 -14 -11 -16 4 -20 1 -20 -18 0 -25 33 -42 61 -31
8 3 17 3 20 -1 4 -3 13 -7 22 -8 13 -2 13 0 2 14 -9 12 -3 10 25 -6 20 -12 37
-18 37 -14 -1 23 -14 52 -25 52 -7 0 -18 6 -24 14 -25 30 34 3 64 -29 25 -27
32 -30 43 -19 7 8 24 14 37 14 17 0 23 4 19 14 -5 13 32 43 48 38 4 -1 18 12
32 29 19 22 31 29 46 24 11 -4 20 -2 20 4 0 6 -9 11 -20 11 -11 0 -20 5 -20
10 0 6 -7 10 -16 10 -8 0 -12 5 -9 10 4 6 11 8 16 5 5 -4 9 1 9 9 0 9 5 16 10
16 6 0 10 4 10 9 0 5 -11 8 -25 7 -13 -2 -22 1 -19 5 3 5 -1 9 -9 9 -8 0 -17
-7 -21 -15z m-226 -175 c0 -5 -2 -10 -4 -10 -3 0 -8 5 -11 10 -3 6 -1 10 4 10
6 0 11 -4 11 -10z"/>
<path d="M1325 1070 c-3 -5 -1 -10 4 -10 6 0 11 5 11 10 0 6 -2 10 -4 10 -3 0
-8 -4 -11 -10z"/>
<path d="M1290 1015 c0 -8 2 -15 4 -15 2 0 6 7 10 15 3 8 1 15 -4 15 -6 0 -10
-7 -10 -15z"/>
<path d="M880 1003 c0 -10 4 -14 8 -8 4 6 11 13 16 18 5 4 2 7 -7 7 -10 0 -17
-8 -17 -17z"/>
<path d="M1345 1010 c3 -5 8 -10 11 -10 2 0 4 5 4 10 0 6 -5 10 -11 10 -5 0
-7 -4 -4 -10z"/>
<path d="M826 1001 c-4 -6 2 -15 13 -20 15 -8 20 -7 26 6 3 10 3 14 -1 10 -4
-4 -13 -2 -20 4 -8 6 -14 7 -18 0z"/>
<path d="M1696 985 c4 -8 9 -15 13 -15 4 0 8 7 8 15 0 8 -6 15 -13 15 -8 0
-11 -6 -8 -15z"/>
<path d="M767 973 c4 -10 2 -14 -4 -10 -5 3 -10 0 -10 -8 0 -16 24 -28 38 -19
5 3 7 10 4 15 -4 5 5 5 20 -1 43 -16 43 -11 0 15 -47 29 -57 31 -48 8z"/>
<path d="M1850 980 c0 -5 7 -10 15 -10 8 0 15 5 15 10 0 6 -7 10 -15 10 -8 0
-15 -4 -15 -10z"/>
<path d="M635 970 c-3 -5 1 -10 10 -10 9 0 13 5 10 10 -3 6 -8 10 -10 10 -2 0
-7 -4 -10 -10z"/>
<path d="M1335 969 c-11 -4 -14 -8 -7 -10 33 -5 46 -3 49 7 4 12 -15 14 -42 3z"/>
<path d="M1458 963 c6 -2 18 -2 25 0 6 3 1 5 -13 5 -14 0 -19 -2 -12 -5z"/>
<path d="M690 945 c0 -9 6 -12 17 -8 10 4 14 2 9 -5 -3 -6 -1 -14 5 -18 7 -4
9 -3 5 4 -3 5 -1 12 5 14 6 2 0 9 -15 16 -21 10 -26 9 -26 -3z"/>
<path d="M1408 953 c7 -3 16 -2 19 1 4 3 -2 6 -13 5 -11 0 -14 -3 -6 -6z"/>
<path d="M1238 933 c6 -2 18 -2 25 0 6 3 1 5 -13 5 -14 0 -19 -2 -12 -5z"/>
<path d="M1678 923 c12 -2 32 -2 45 0 12 2 2 4 -23 4 -25 0 -35 -2 -22 -4z"/>
<path d="M687 877 c-3 -9 1 -18 9 -21 16 -6 18 2 5 22 -7 11 -9 11 -14 -1z"/>
<path d="M530 866 c7 -7 14 -6 21 1 9 9 7 12 -9 10 -14 -1 -18 -5 -12 -11z"/>
<path d="M728 873 c7 -3 16 -2 19 1 4 3 -2 6 -13 5 -11 0 -14 -3 -6 -6z"/>
<path d="M1200 860 c-6 -11 -7 -20 -2 -20 5 0 17 9 27 20 16 18 16 20 2 20 -9
0 -21 -9 -27 -20z"/>
<path d="M1736 863 c-6 -14 -5 -15 5 -6 7 7 10 15 7 18 -3 3 -9 -2 -12 -12z"/>
<path d="M744 835 c-4 -8 -11 -12 -17 -8 -6 4 -8 0 -4 -11 4 -9 3 -14 -2 -11
-5 3 -12 1 -16 -4 -3 -6 -13 -8 -23 -5 -14 5 -15 4 -2 -5 8 -6 24 -11 35 -11
17 0 17 -2 5 -10 -10 -6 -11 -10 -2 -10 6 0 12 -7 12 -15 0 -8 5 -15 11 -15 5
0 7 -4 4 -10 -10 -16 -22 -12 -28 10 -3 11 -11 19 -19 18 -7 -2 -12 4 -10 12
3 10 -4 7 -21 -8 -15 -14 -30 -20 -40 -16 -10 3 -17 2 -17 -4 0 -5 15 -13 34
-16 19 -4 36 -10 38 -15 4 -11 81 -52 87 -46 2 3 -4 13 -13 24 -15 16 -15 22
-4 40 11 18 11 23 -2 31 -12 8 -10 10 9 10 16 0 21 -4 18 -14 -3 -8 2 -16 14
-19 10 -3 19 -10 19 -17 0 -6 -4 -9 -9 -5 -5 3 -13 0 -16 -6 -13 -20 4 -21 37
-2 19 11 60 28 93 38 55 18 57 19 32 28 -15 5 -27 13 -27 17 0 5 -8 8 -17 8
-10 0 -27 3 -38 7 -16 5 -17 5 -5 -4 8 -5 11 -13 7 -18 -5 -4 -25 11 -45 35
-38 43 -68 54 -78 27z m32 -17 c-1 -13 -6 -22 -10 -21 -29 7 -31 10 -17 26 19
24 31 21 27 -5z m34 -28 c0 -5 -8 -10 -17 -10 -15 0 -16 2 -3 10 19 12 20 12
20 0z"/>
<path d="M1335 841 c-10 -17 12 -21 25 -6 10 12 10 15 -3 15 -9 0 -18 -4 -22
-9z"/>
<path d="M676 828 c7 -11 34 -10 34 1 0 6 -9 9 -19 8 -11 0 -17 -5 -15 -9z"/>
<path d="M1130 824 l-35 -13 46 2 c32 1 45 6 42 15 -6 14 -7 14 -53 -4z"/>
<path d="M893 823 c-19 -7 -16 -22 5 -18 9 1 23 -2 30 -8 16 -12 16 5 0 21
-13 13 -16 13 -35 5z"/>
<path d="M1045 810 c-4 -6 -10 -8 -14 -6 -4 3 -8 -1 -8 -8 0 -11 7 -12 29 -4
35 12 46 28 19 28 -11 0 -23 -5 -26 -10z"/>
<path d="M2560 816 c0 -2 7 -7 16 -10 8 -3 12 -2 9 4 -6 10 -25 14 -25 6z"/>
<path d="M1252 793 c2 -10 11 -17 20 -15 8 1 21 -4 28 -12 10 -13 8 -14 -11
-11 -13 3 -38 -4 -57 -15 -18 -11 -39 -17 -45 -14 -8 5 -9 4 -2 -4 6 -6 22
-14 37 -17 23 -6 26 -4 21 14 -5 18 -1 21 30 21 20 0 39 5 43 11 4 8 9 7 15
-2 6 -10 9 -10 9 -2 0 7 6 10 14 7 8 -3 17 0 21 5 3 6 11 9 16 6 5 -4 9 -1 9
4 0 6 -8 11 -17 11 -15 0 -16 2 -3 10 13 9 13 10 0 10 -9 0 -21 -5 -27 -11
-14 -14 -47 -4 -38 11 9 14 -8 13 -23 -2 -9 -9 -12 -9 -12 0 0 7 -7 12 -16 12
-9 0 -14 -7 -12 -17z"/>
<path d="M640 790 c0 -5 5 -10 11 -10 5 0 7 5 4 10 -3 6 -8 10 -11 10 -2 0 -4
-4 -4 -10z"/>
<path d="M456 775 c-3 -9 0 -15 9 -15 16 0 20 16 6 24 -5 3 -11 -1 -15 -9z"/>
<path d="M1528 783 c7 -3 16 -2 19 1 4 3 -2 6 -13 5 -11 0 -14 -3 -6 -6z"/>
<path d="M1090 770 c0 -5 5 -10 10 -10 6 0 10 5 10 10 0 6 -4 10 -10 10 -5 0
-10 -4 -10 -10z"/>
<path d="M1174 763 c14 -18 23 -20 37 -12 25 13 24 22 -1 14 -12 -4 -28 -1
-38 7 -13 10 -13 8 2 -9z"/>
<path d="M1677 769 c7 -7 15 -10 18 -7 3 3 -2 9 -12 12 -14 6 -15 5 -6 -5z"/>
<path d="M585 760 c3 -5 8 -10 11 -10 2 0 4 5 4 10 0 6 -5 10 -11 10 -5 0 -7
-4 -4 -10z"/>
<path d="M1120 760 c0 -4 9 -10 20 -13 11 -3 20 -2 20 3 0 4 -9 10 -20 13 -11
3 -20 2 -20 -3z"/>
<path d="M360 740 c0 -5 5 -10 11 -10 5 0 7 5 4 10 -3 6 -8 10 -11 10 -2 0 -4
-4 -4 -10z"/>
<path d="M1085 740 c4 -6 11 -8 16 -5 14 9 11 15 -7 15 -8 0 -12 -5 -9 -10z"/>
<path d="M1033 722 c-3 -9 -7 -19 -9 -22 -2 -5 22 -6 64 -1 22 2 13 16 -19 28
-26 10 -31 9 -36 -5z"/>
<path d="M976 718 c7 -10 34 -10 34 0 0 4 -9 8 -19 8 -11 0 -17 -4 -15 -8z"/>
<path d="M280 710 c0 -5 7 -10 15 -10 8 0 15 5 15 10 0 6 -7 10 -15 10 -8 0
-15 -4 -15 -10z"/>
<path d="M1520 710 c0 -5 10 -10 23 -10 18 0 19 2 7 10 -19 13 -30 13 -30 0z"/>
<path d="M368 703 c7 -3 16 -2 19 1 4 3 -2 6 -13 5 -11 0 -14 -3 -6 -6z"/>
<path d="M376 673 l-29 -28 6 25 c5 21 4 22 -6 10 -7 -8 -16 -15 -22 -16 -32
-4 -56 -18 -51 -31 3 -8 6 -21 6 -29 0 -11 5 -12 18 -5 9 5 30 7 45 4 16 -3
27 -1 27 6 0 6 -5 11 -12 11 -6 0 -8 3 -5 6 4 4 12 2 19 -3 7 -6 22 -7 33 -3
23 9 47 2 58 -17 11 -18 42 -16 58 4 8 9 9 14 3 10 -7 -4 -26 -2 -44 4 -24 9
-29 14 -18 21 8 6 -1 8 -29 4 -26 -4 -43 -2 -43 4 0 5 5 10 12 10 6 0 8 3 5 7
-4 3 -2 12 4 20 21 24 -6 13 -35 -14z"/>
<path d="M1094 674 c-17 -17 -19 -24 -8 -28 7 -3 16 -1 19 5 4 5 11 7 16 4 5
-4 9 1 9 9 0 17 16 22 22 7 4 -13 52 -18 56 -6 1 6 -8 10 -20 10 -13 0 -26 3
-29 8 -12 17 -45 12 -65 -9z"/>
<path d="M268 683 c6 -2 18 -2 25 0 6 3 1 5 -13 5 -14 0 -19 -2 -12 -5z"/>
<path d="M2502 658 c-17 -17 -15 -38 2 -32 17 7 28 31 17 38 -4 3 -13 0 -19
-6z"/>
<path d="M1723 644 c0 -8 6 -14 14 -14 7 0 13 4 13 9 0 5 -6 11 -13 14 -8 3
-14 -1 -14 -9z"/>
<path d="M1035 640 c-16 -7 -17 -9 -3 -9 9 -1 20 4 23 9 7 11 7 11 -20 0z"/>
<path d="M905 630 c-4 -6 3 -10 14 -10 25 0 27 6 6 13 -8 4 -17 2 -20 -3z"/>
<path d="M1649 623 c-13 -16 -12 -17 4 -4 16 13 21 21 13 21 -2 0 -10 -8 -17
-17z"/>
<path d="M1030 616 c0 -9 30 -14 35 -6 4 6 -3 10 -14 10 -12 0 -21 -2 -21 -4z"/>
<path d="M813 585 c-10 -11 -10 -14 0 -18 9 -4 9 -7 0 -18 -16 -16 -17 -29 -3
-29 6 0 10 7 10 16 0 12 6 15 23 11 20 -5 20 -5 5 7 -16 12 -16 14 0 29 15 16
15 17 -3 17 -11 -1 -25 -7 -32 -15z"/>
<path d="M885 590 c-8 -13 5 -13 25 0 13 8 13 10 -2 10 -9 0 -20 -4 -23 -10z"/>
<path d="M1603 585 c-9 -10 -9 -16 -2 -20 14 -9 22 0 17 18 -2 13 -5 13 -15 2z"/>
<path d="M1640 585 c0 -7 6 -15 13 -18 18 -7 38 6 29 18 -10 15 -42 15 -42 0z"/>
<path d="M935 580 c-3 -5 1 -10 10 -10 9 0 13 5 10 10 -3 6 -8 10 -10 10 -2 0
-7 -4 -10 -10z"/>
<path d="M1116 557 c-7 -29 22 -61 44 -47 13 8 12 12 -8 25 -12 9 -20 20 -17
25 3 5 1 11 -4 14 -5 3 -11 -4 -15 -17z"/>
<path d="M1720 545 c0 -16 16 -20 24 -6 3 5 -1 11 -9 15 -9 3 -15 0 -15 -9z"/>
<path d="M1620 529 c0 -11 27 -12 34 -1 2 4 -4 9 -15 9 -10 1 -19 -2 -19 -8z"/>
<path d="M760 516 c0 -2 7 -7 16 -10 8 -3 12 -2 9 4 -6 10 -25 14 -25 6z"/>
<path d="M1250 510 c8 -5 20 -10 25 -10 6 0 3 5 -5 10 -8 5 -19 10 -25 10 -5
0 -3 -5 5 -10z"/>
<path d="M915 500 c-3 -6 1 -7 9 -4 18 7 21 14 7 14 -6 0 -13 -4 -16 -10z"/>
<path d="M760 470 c0 -5 4 -10 9 -10 6 0 13 5 16 10 3 6 -1 10 -9 10 -9 0 -16
-4 -16 -10z"/>
<path d="M1600 450 c-23 -7 -23 -8 -3 -9 12 -1 25 4 28 9 3 6 5 10 3 9 -2 -1
-14 -5 -28 -9z"/>
<path d="M1747 440 c3 -11 7 -20 9 -20 2 0 4 9 4 20 0 11 -4 20 -9 20 -5 0 -7
-9 -4 -20z"/>
<path d="M1620 430 c-12 -7 -10 -9 7 -7 12 0 19 5 17 9 -6 10 -6 10 -24 -2z"/>
<path d="M1710 421 c0 -11 -11 -28 -25 -39 -32 -26 -31 -29 5 -28 16 1 30 4
30 7 0 3 6 6 13 7 28 2 48 9 59 20 9 9 9 12 0 12 -6 0 -9 7 -6 15 4 8 1 15 -5
15 -6 0 -10 -5 -8 -11 1 -6 -6 -13 -15 -14 -12 -2 -18 3 -18 16 0 10 -7 19
-15 19 -8 0 -15 -9 -15 -19z"/>
<path d="M1665 419 c-11 -17 1 -21 15 -4 8 9 8 15 2 15 -6 0 -14 -5 -17 -11z"/>
<path d="M326 391 c-6 -10 16 -21 41 -21 13 0 13 2 -1 15 -17 17 -32 19 -40 6z"/>
<path d="M508 363 c7 -3 16 -2 19 1 4 3 -2 6 -13 5 -11 0 -14 -3 -6 -6z"/>
<path d="M610 355 c-8 -9 -8 -15 -2 -15 12 0 26 19 19 26 -2 2 -10 -2 -17 -11z"/>
<path d="M1756 341 c-12 -14 -12 -20 -1 -41 8 -14 14 -21 15 -16 0 5 9 1 20
-9 18 -16 20 -16 20 -2 0 10 8 17 20 17 11 0 19 3 19 8 -4 26 2 32 20 22 30
-16 33 -12 10 15 l-22 24 -19 -24 c-11 -14 -24 -25 -29 -25 -16 0 -10 29 9 39
14 8 11 10 -15 9 -18 -1 -39 -8 -47 -17z m34 -17 c0 -2 -9 -4 -21 -4 -11 0
-18 4 -14 10 5 8 35 3 35 -6z"/>
<path d="M450 336 c6 -8 19 -12 27 -9 14 6 14 8 -3 14 -30 12 -37 10 -24 -5z"/>
<path d="M300 330 c-12 -7 -12 -12 -2 -22 9 -9 15 -9 24 0 9 9 9 12 -1 12 -7
0 -9 5 -6 10 8 12 4 12 -15 0z"/>
<path d="M1505 331 c-3 -5 -2 -12 3 -15 5 -3 9 1 9 9 0 17 -3 19 -12 6z"/>
<path d="M600 320 c8 -5 20 -10 25 -10 6 0 3 5 -5 10 -8 5 -19 10 -25 10 -5 0
-3 -5 5 -10z"/>
<path d="M400 297 c0 -11 10 -15 38 -14 20 0 29 2 19 4 -9 3 -15 9 -12 14 4 5
1 9 -4 9 -6 0 -11 -5 -11 -11 0 -8 -5 -8 -15 1 -12 10 -15 10 -15 -3z"/>
<path d="M1350 285 c-7 -9 -8 -15 -2 -15 5 0 12 7 16 15 3 8 4 15 2 15 -2 0
-9 -7 -16 -15z"/>
<path d="M1481 285 l-24 -12 27 0 c14 0 29 3 31 8 10 15 -10 17 -34 4z"/>
<path d="M923 276 c-4 -5 -1 -6 7 -1 10 6 12 3 8 -13 -4 -16 -1 -20 13 -19 19
1 36 27 18 27 -6 0 -8 4 -5 8 2 4 -4 8 -15 8 -11 0 -23 -5 -26 -10z"/>
<path d="M1580 280 c0 -6 7 -10 15 -10 8 0 15 2 15 4 0 2 -7 6 -15 10 -8 3
-15 1 -15 -4z"/>
<path d="M1005 272 c-16 -12 -16 -32 0 -32 8 0 15 9 15 20 0 22 -1 23 -15 12z"/>
<path d="M1374 265 c-18 -14 -18 -14 4 -8 12 3 22 9 22 14 0 12 -3 11 -26 -6z"/>
<path d="M1647 273 c-4 -3 -7 -11 -7 -17 0 -6 5 -4 10 4 6 9 13 11 18 5 4 -5
14 -11 22 -13 10 -1 9 2 -4 13 -22 17 -29 18 -39 8z"/>
<path d="M1530 259 c0 -11 27 -12 34 -1 2 4 -4 9 -15 9 -10 1 -19 -2 -19 -8z"/>
<path d="M2030 256 c0 -19 14 -33 40 -40 l25 -7 -21 18 c-11 10 -19 23 -17 29
2 6 -3 11 -12 11 -8 0 -15 -5 -15 -11z"/>
<path d="M1590 248 c0 -11 28 -10 35 1 3 6 -4 9 -15 8 -11 -1 -20 -5 -20 -9z"/>
<path d="M1843 245 c0 -8 4 -15 7 -15 4 0 13 7 20 15 10 12 9 15 -7 15 -11 0
-20 -7 -20 -15z"/>
<path d="M2070 249 c0 -5 5 -7 10 -4 6 3 10 8 10 11 0 2 -4 4 -10 4 -5 0 -10
-5 -10 -11z"/>
<path d="M1740 235 c-12 -14 -12 -19 -2 -23 9 -3 10 -8 2 -16 -7 -10 -3 -16
15 -24 14 -6 25 -19 25 -28 0 -8 6 -14 13 -11 6 2 11 12 11 21 -1 9 2 16 7 16
5 0 9 4 9 10 0 5 -15 7 -32 5 -18 -3 -26 -2 -18 1 31 14 45 69 14 57 -8 -3
-13 -12 -10 -19 3 -8 1 -14 -4 -14 -5 0 -10 10 -12 22 -3 20 -4 21 -18 3z"/>
<path d="M2010 240 c0 -5 5 -10 11 -10 5 0 7 5 4 10 -3 6 -8 10 -11 10 -2 0
-4 -4 -4 -10z"/>
<path d="M1260 224 c-17 -9 -20 -14 -9 -14 9 0 22 7 29 15 15 18 13 18 -20 -1z"/>
<path d="M1117 214 c-4 -4 -19 -7 -33 -8 -15 -1 -29 -6 -31 -13 -3 -9 4 -10
27 -3 27 8 30 7 20 -5 -7 -8 -19 -15 -26 -15 -8 0 -13 -6 -11 -12 1 -7 -6 -12
-15 -12 -10 1 -15 -2 -12 -7 3 -5 1 -9 -4 -9 -6 0 -13 7 -16 16 -5 13 -9 14
-21 4 -12 -10 -15 -10 -15 0 0 8 -3 10 -7 7 -3 -4 -12 1 -20 11 -12 16 -13 16
-6 -2 4 -13 3 -17 -5 -12 -7 4 -12 1 -12 -9 0 -9 5 -13 10 -10 6 3 10 0 10 -7
0 -10 2 -10 8 -1 15 24 61 7 74 -29 4 -9 16 -22 27 -27 17 -9 22 -8 31 10 11
19 9 20 -19 16 -24 -4 -29 -2 -24 11 10 28 65 71 86 66 26 -5 35 -14 14 -14
-9 0 -17 -4 -17 -10 0 -5 -7 -10 -16 -10 -10 0 -12 -4 -7 -12 4 -7 8 -17 8
-22 0 -14 45 -15 93 -3 28 7 42 17 42 27 0 24 -10 31 -29 20 -13 -7 -20 -2
-30 21 -9 21 -18 28 -29 24 -12 -4 -13 -3 -2 10 11 13 9 15 -12 15 -14 0 -28
-3 -31 -6z m91 -84 c15 -1 15 -2 -1 -11 -34 -20 -53 -19 -53 4 1 25 29 42 34
21 2 -8 11 -14 20 -14z"/>
<path d="M1306 196 c7 -18 32 -28 39 -16 3 5 -3 14 -14 19 -26 15 -31 14 -25
-3z"/>
<path d="M503 174 c2 -26 5 -30 18 -23 9 4 19 5 23 2 3 -3 6 -1 6 5 0 7 -5 12
-11 12 -7 0 -18 8 -25 18 -12 15 -13 14 -11 -14z"/>
<path d="M1235 190 c-3 -5 -1 -10 4 -10 6 0 11 5 11 10 0 6 -2 10 -4 10 -3 0
-8 -4 -11 -10z"/>
<path d="M1665 190 c-3 -5 -3 -15 1 -22 5 -7 2 -9 -8 -6 -23 9 -38 -5 -22 -20
8 -7 14 -8 14 -2 0 5 10 10 21 10 18 0 20 2 8 16 -10 13 -10 17 2 25 9 5 10 9
2 9 -6 0 -15 -4 -18 -10z"/>
<path d="M1885 190 c-3 -5 -3 -10 2 -10 4 0 1 -5 -7 -10 -8 -5 -10 -10 -4 -10
6 0 19 9 29 20 16 17 16 20 2 20 -9 0 -19 -4 -22 -10z"/>
<path d="M396 181 c-3 -5 1 -11 9 -15 8 -3 15 -1 15 4 0 13 -18 22 -24 11z"/>
<path d="M1830 176 c0 -9 5 -16 10 -16 6 0 10 4 10 9 0 6 -4 13 -10 16 -5 3
-10 -1 -10 -9z"/>
<path d="M1986 177 c3 -10 9 -15 12 -12 3 3 0 11 -7 18 -10 9 -11 8 -5 -6z"/>
<path d="M476 171 c-4 -5 -2 -12 3 -15 5 -4 12 -2 15 3 4 5 2 12 -3 15 -5 4
-12 2 -15 -3z"/>
<path d="M1402 166 c7 -8 15 -12 17 -11 5 6 -10 25 -20 25 -5 0 -4 -6 3 -14z"/>
<path d="M1530 165 c7 -8 17 -15 22 -15 5 0 3 7 -6 15 -8 8 -18 15 -22 15 -3
0 -1 -7 6 -15z"/>
<path d="M1957 159 c7 -7 15 -10 18 -7 3 3 -2 9 -12 12 -14 6 -15 5 -6 -5z"/>
<path d="M1500 153 c1 -9 50 -47 50 -38 0 6 -38 45 -45 45 -3 0 -5 -3 -5 -7z"/>
<path d="M1921 144 c0 -11 3 -14 6 -6 3 7 2 16 -1 19 -3 4 -6 -2 -5 -13z"/>
<path d="M377 143 c-12 -18 21 -23 35 -5 11 15 11 16 -4 4 -13 -10 -17 -10
-20 0 -3 8 -6 9 -11 1z"/>
<path d="M1840 142 c8 -2 22 -9 32 -13 10 -6 18 -4 21 4 3 9 -6 13 -32 14 -20
0 -29 -2 -21 -5z"/>
<path d="M1580 125 c-11 -13 -11 -18 0 -28 10 -10 12 -9 7 5 -7 20 16 31 33
15 10 -9 11 -9 8 3 -7 21 -32 24 -48 5z"/>
<path d="M280 120 c0 -5 5 -10 11 -10 5 0 7 5 4 10 -3 6 -8 10 -11 10 -2 0 -4
-4 -4 -10z"/>
<path d="M1065 120 c4 -6 11 -8 16 -5 14 9 11 15 -7 15 -8 0 -12 -5 -9 -10z"/>
<path d="M365 79 c-9 -17 -14 -33 -11 -37 3 -3 6 0 6 6 0 7 7 12 15 12 9 0 15
9 15 25 0 33 -6 32 -25 -6z"/>
<path d="M1631 93 c-18 -12 -22 -13 -16 -2 6 11 5 12 -5 2 -22 -20 -21 -41 1
-36 10 3 19 1 19 -4 0 -5 7 -10 15 -10 11 0 12 4 4 13 -8 10 -5 15 15 20 21 5
24 9 15 20 -15 18 -19 18 -48 -3z"/>
<path d="M1712 98 c-7 -7 -12 -19 -12 -27 -1 -34 -23 -47 -77 -45 -29 1 -53
-1 -53 -5 0 -4 17 -8 38 -8 20 -1 60 -5 87 -8 36 -4 46 -3 35 4 -13 10 -13 12
0 21 8 6 27 13 43 17 15 3 27 10 27 15 0 6 -10 8 -22 4 -70 -19 -71 -19 -62
-5 8 14 16 49 11 49 -2 0 -8 -5 -15 -12z"/>
<path d="M1223 85 c3 -17 21 -24 33 -14 8 7 14 6 19 -1 3 -5 18 -10 33 -9 26
0 26 1 5 9 -13 5 -23 14 -23 19 0 5 -15 9 -34 8 -19 -1 -34 -6 -33 -12z"/>
<path d="M960 75 c0 -16 16 -20 24 -6 3 5 -1 11 -9 15 -9 3 -15 0 -15 -9z"/>
<path d="M1843 80 c-34 -14 -28 -21 7 -9 17 6 30 13 30 15 0 6 -12 4 -37 -6z"/>
<path d="M500 64 c0 -14 3 -14 15 -4 8 7 15 14 15 16 0 2 -7 4 -15 4 -8 0 -15
-7 -15 -16z"/>
<path d="M1155 71 c3 -5 -5 -17 -17 -25 -12 -9 -17 -16 -10 -16 6 0 12 -4 12
-10 0 -5 -7 -10 -15 -10 -8 0 -15 6 -15 14 0 10 -8 13 -25 10 -15 -3 -25 0
-25 7 0 8 -5 8 -15 -1 -9 -7 -28 -13 -42 -14 -25 -1 -48 -26 -24 -26 6 0 11 4
11 9 0 4 13 8 29 7 16 -1 27 -4 25 -7 -2 -4 42 -7 99 -7 78 0 94 2 67 8 -19 5
-41 7 -47 5 -18 -6 -16 10 1 25 15 12 11 40 -6 40 -5 0 -7 -4 -3 -9z"/>
<path d="M1556 54 c-22 -21 -20 -27 4 -14 11 6 20 15 20 20 0 14 -6 12 -24 -6z"/>
<path d="M2125 61 c-11 -5 -23 -7 -27 -4 -5 2 -8 -1 -8 -6 0 -6 8 -11 19 -11
21 0 45 -23 34 -33 -3 -4 10 -7 30 -7 31 0 37 3 37 21 0 14 -5 19 -13 16 -8
-3 -20 3 -28 14 -15 21 -15 21 -44 10z"/>
<path d="M906 45 c-3 -10 -12 -15 -21 -11 -19 7 -19 -1 -1 -20 19 -19 26 -18
61 12 21 18 23 22 8 15 -18 -9 -24 -8 -31 5 -8 15 -10 15 -16 -1z m21 -21 c-3
-3 -12 -4 -19 -1 -8 3 -5 6 6 6 11 1 17 -2 13 -5z"/>
<path d="M1948 53 c6 -2 12 -11 12 -19 0 -9 -4 -12 -10 -9 -5 3 -10 -1 -10 -9
0 -11 10 -16 33 -16 17 0 27 4 21 8 -6 4 -16 17 -23 30 -6 12 -17 22 -24 21
-9 0 -9 -2 1 -6z"/>
<path d="M572 30 c-3 -8 -7 -19 -10 -25 -3 -6 4 -1 16 9 12 11 22 14 22 9 0
-6 11 -13 25 -15 14 -3 25 -1 25 3 0 5 -7 9 -15 9 -8 0 -15 6 -15 14 0 20 -41
16 -48 -4z"/>
<path d="M988 43 c7 -3 16 -2 19 1 4 3 -2 6 -13 5 -11 0 -14 -3 -6 -6z"/>
<path d="M1205 40 c-16 -6 -17 -9 -5 -13 8 -3 23 -5 32 -4 14 0 15 3 7 14 -6
7 -12 13 -13 12 0 0 -10 -4 -21 -9z"/>
<path d="M459 38 c-7 -24 -5 -38 6 -38 8 0 17 5 20 10 3 6 0 10 -7 10 -9 0 -9
3 2 10 13 8 12 10 -2 10 -10 0 -18 -1 -19 -2z"/>
<path d="M1347 29 c7 -7 15 -10 18 -7 3 3 -2 9 -12 12 -14 6 -15 5 -6 -5z"/>
<path d="M1880 25 c0 -9 9 -15 21 -15 18 0 19 2 9 15 -7 8 -16 15 -21 15 -5 0
-9 -7 -9 -15z"/>
<path d="M335 20 c-3 -5 -1 -10 4 -10 6 0 11 5 11 10 0 6 -2 10 -4 10 -3 0 -8
-4 -11 -10z"/>
<path d="M400 15 c-9 -10 -9 -15 -1 -15 6 0 11 5 11 11 0 5 5 7 12 3 7 -4 8
-3 4 4 -9 15 -11 15 -26 -3z"/>
<path d="M808 18 c14 -14 45 -20 37 -8 -2 4 -14 10 -26 13 -16 4 -19 3 -11 -5z"/>
<path d="M1310 22 c0 -6 -8 -13 -17 -15 -16 -4 -16 -5 -1 -6 18 -1 34 16 24
26 -3 4 -6 1 -6 -5z"/>
<path d="M1510 20 c0 -5 5 -10 11 -10 5 0 7 5 4 10 -3 6 -8 10 -11 10 -2 0 -4
-4 -4 -10z"/>
<path d="M2250 10 c0 -5 4 -10 9 -10 6 0 13 5 16 10 3 6 -1 10 -9 10 -9 0 -16
-4 -16 -10z"/>
<path d="M1358 3 c6 -2 18 -2 25 0 6 3 1 5 -13 5 -14 0 -19 -2 -12 -5z"/>
<path d="M1478 3 c7 -3 16 -2 19 1 4 3 -2 6 -13 5 -11 0 -14 -3 -6 -6z"/>
</g>
</svg>
